<?xml version="1.0" standalone="no"?>
<!DOCTYPE svg PUBLIC "-//W3C//DTD SVG 1.1//EN" "http://www.w3.org/Graphics/SVG/1.1/DTD/svg11.dtd" >
<svg xmlns="http://www.w3.org/2000/svg" xmlns:xlink="http://www.w3.org/1999/xlink" version="1.1">
<metadata>
Created by FontForge 20170731 at Mon Feb 13 02:16:34 2017
 By Aleksey,,,
copyright missing
</metadata>
<defs>
<font id="Calamity-Bold" horiz-adv-x="690" >
  <font-face 
    font-family="Calamity"
    font-weight="700"
    font-stretch="normal"
    units-per-em="1000"
    panose-1="0 0 8 0 0 0 0 0 0 0"
    ascent="880"
    descent="-120"
    x-height="554"
    cap-height="780"
    bbox="-413 -212 952 1047"
    underline-thickness="50"
    underline-position="-200"
    unicode-range="U+0020-FB02"
  />
<missing-glyph horiz-adv-x="500" 
d="M410 880v-1000h-317v1000h317zM333 813h-165v-33h65v-37h-66v-33h166v33h-66v37h66v33zM267 684h-100v-104h166v34h-66v70zM233 650v-36h-33v36h33zM333 553h-166v-33h66v-37h-66v-33h100v70h66v33zM333 493h-33v-66h-133v-34h166v100zM333 371h-100v-56h34v23h33v-47
h-100v80h-33v-113h166v113zM333 198h-166v-113h166v113zM300 165v-47h-100v47h100zM333 62h-166v-33h70l-70 -47v-33h166v33h-102l70 47h32v33z" />
    <glyph glyph-name="fi" unicode="fi" horiz-adv-x="600" 
d="M371 683h-13q-71 0 -93 -15.5t-27 -56.5l-5 -56h107l-12 -111h-101l-43 -444h-142l43 444h-79l12 111h79l6 59q9 98 63 141t192 44zM537 636h-148l14 144h148zM472 0h-143l55 555h143z" />
    <glyph glyph-name="fl" unicode="fl" horiz-adv-x="600" 
d="M371 683h-13q-71 0 -93 -15.5t-27 -56.5l-5 -56h107l-12 -111h-101l-43 -444h-142l43 444h-79l12 111h79l6 59q9 98 63 141t192 44zM472 0h-143l77 780h143z" />
    <glyph glyph-name="f_f" unicode="ff" horiz-adv-x="628" 
d="M644 683h-13q-71 0 -93 -15.5t-27 -56.5l-5 -56h107l-12 -111h-101l-43 -444h-142l43 444h-132l-43 -444h-142l43 444h-79l12 111h79l6 59q9 98 63 141t192 44l13 -116h-13q-71 0 -93.5 -15.5t-26.5 -56.5l-4 -56h137l6 59q9 98 63 141t192 44z" />
    <glyph glyph-name="f_f_i" unicode="ffi" horiz-adv-x="860" 
d="M640 683h-13q-70 0 -90.5 -15.5t-25.5 -56.5l-5 -56h104l-12 -111h-98l-43 -444h-142l43 444h-132l-43 -444h-142l43 444h-79l12 111h79l6 59q9 98 63 141t192 44l13 -116h-13q-71 0 -93 -15.5t-27 -56.5l-5 -56h138l6 59q9 99 61.5 141.5t189.5 43.5zM796 636h-148
l14 144h148zM731 0h-143l55 555h143z" />
    <glyph glyph-name="f_f_l" unicode="ffl" horiz-adv-x="860" 
d="M640 683h-13q-70 0 -90.5 -15.5t-25.5 -56.5l-5 -56h104l-12 -111h-98l-43 -444h-142l43 444h-132l-43 -444h-142l43 444h-79l12 111h79l6 59q9 98 63 141t192 44l13 -116h-13q-71 0 -93 -15.5t-27 -56.5l-5 -56h138l6 59q9 99 61.5 141.5t189.5 43.5zM732 0h-144l76 780
h143z" />
    <glyph glyph-name=".notdef" horiz-adv-x="500" 
d="M410 880v-1000h-317v1000h317zM333 813h-165v-33h65v-37h-66v-33h166v33h-66v37h66v33zM267 684h-100v-104h166v34h-66v70zM233 650v-36h-33v36h33zM333 553h-166v-33h66v-37h-66v-33h100v70h66v33zM333 493h-33v-66h-133v-34h166v100zM333 371h-100v-56h34v23h33v-47
h-100v80h-33v-113h166v113zM333 198h-166v-113h166v113zM300 165v-47h-100v47h100zM333 62h-166v-33h70l-70 -47v-33h166v33h-102l70 47h32v33z" />
    <glyph glyph-name=".null" horiz-adv-x="0" 
 />
    <glyph glyph-name="nonmarkingreturn" horiz-adv-x="333" 
 />
    <glyph glyph-name="space" unicode=" " horiz-adv-x="345" 
 />
    <glyph glyph-name="exclam" unicode="!" horiz-adv-x="400" 
d="M227 233h-120l38 547h151zM218 0h-149l15 154h149z" />
    <glyph glyph-name="quotedbl" unicode="&#x22;" horiz-adv-x="500" 
d="M181 482h-100l16 298h134zM393 482h-100l16 298h135z" />
    <glyph glyph-name="numbersign" unicode="#" 
d="M657 484h-142l-49 -161h116l-13 -125h-144l-61 -198h-107l62 198h-120l-61 -198h-108l62 198h-105l13 125h132l51 161h-107l12 125h134l55 171h104l-53 -171h121l54 171h105l-53 -171h114zM288 484l-49 -161h120l51 161h-122z" />
    <glyph glyph-name="dollar" unicode="$" 
d="M514 560q-21 84 -113 103l-20 -200l41 -13q162 -50 176 -174q2 -23 0 -47q-10 -97 -78 -155.5t-184 -68.5l-8 -86h-82l9 85q-94 9 -154.5 59t-80.5 131l106 70q13 -53 51.5 -90t89.5 -49l22 228l-54 17q-72 22 -109.5 57t-44.5 90q-3 24 0 51q9 85 77 142.5t173 65.5
l6 64h82l-6 -65q166 -16 203 -144zM320 667q-46 -5 -76 -30t-33 -58v-15q5 -48 77 -72q13 -5 15 -5zM461 236q-5 52 -78 84l-15 6l-20 -203q47 5 78 29t35 60q1 14 0 24z" />
    <glyph glyph-name="percent" unicode="%" horiz-adv-x="1000" 
d="M434 643q2 -23 -1 -58q-8 -85 -66.5 -149t-142.5 -64q-74 0 -116 43t-50 112q-3 24 -1 58q10 92 64 153t145 61q74 0 117 -43.5t51 -112.5zM224 0h-114l630 780h114zM317 633q-8 68 -61 68q-31 0 -55 -28.5t-30 -87.5q-2 -25 0 -43q9 -71 62 -71q32 0 55 29t28 85
q3 26 1 48zM907 253q4 -34 1 -59q-9 -91 -63.5 -152t-145.5 -61q-74 0 -116 43t-49 112q-4 26 -1 58q9 86 68 150t141 64q75 0 116 -43t49 -112zM793 242q-7 68 -61 68q-31 0 -54.5 -28.5t-29.5 -87.5q-2 -31 0 -44q4 -35 20.5 -52.5t40.5 -17.5q33 0 55.5 28.5t28.5 85.5
q3 27 0 48z" />
    <glyph glyph-name="ampersand" unicode="&#x26;" horiz-adv-x="741" 
d="M624 -16q-76 37 -139 89q-101 -92 -225 -92q-113 0 -176 46.5t-72 128.5q-3 27 0 57q12 126 163 217q-49 91 -56 147q-1 0 -1 18l1 18q9 80 67.5 133t152.5 53q79 0 126.5 -37.5t55.5 -100.5q2 -20 0 -43q-13 -135 -182 -221q60 -79 144 -159q41 68 60 174l104 -34
q-22 -121 -78 -209q82 -61 148 -87zM401 614q3 36 -15 59.5t-54 23.5t-61 -23.5t-30 -60.5q-2 -12 0 -26q5 -41 43 -105q58 30 85 61t32 71zM397 147q-98 102 -170 197q-83 -50 -90 -122q-1 -15 0 -28q5 -45 40.5 -73t100.5 -28t119 54z" />
    <glyph glyph-name="quotesingle" unicode="'" horiz-adv-x="345" 
d="M218 481h-117l16 299h151z" />
    <glyph glyph-name="parenleft" unicode="(" horiz-adv-x="400" 
d="M409 788q-97 -77 -158.5 -192t-76.5 -256q-6 -78 1 -142q22 -189 146 -302l-91 -57q-156 134 -180 338q-8 70 0 163q16 157 82 282t197 222z" />
    <glyph glyph-name="parenright" unicode=")" horiz-adv-x="400" 
d="M306 506q9 -79 0 -166q-30 -319 -278 -501l-79 57q95 73 156.5 186.5t76.5 257.5q8 69 0 143q-21 188 -147 305l92 56q157 -136 179 -338z" />
    <glyph glyph-name="asterisk" unicode="*" horiz-adv-x="500" 
d="M480 533l-141 -8l54 -127l-86 -48l-65 123l-91 -122l-74 47l78 127l-142 7l9 91l143 9l-54 128l85 47l66 -123l90 123l76 -47l-79 -129l140 -8z" />
    <glyph glyph-name="plus" unicode="+" 
d="M382 219l25 -219h-131l-25 219h-220l-14 125h220l-24 211h131l24 -211h226l14 -125h-226z" />
    <glyph glyph-name="comma" unicode="," horiz-adv-x="345" 
d="M196 8q-11 -107 -95 -154l-48 47q31 13 50.5 40t22.5 59h-83l16 163h152z" />
    <glyph glyph-name="hyphen" unicode="-" horiz-adv-x="476" 
d="M389 209h-372l14 128h372z" />
    <glyph glyph-name="period" unicode="." horiz-adv-x="345" 
d="M195 0h-152l16 163h152z" />
    <glyph glyph-name="slash" unicode="/" horiz-adv-x="400" 
d="M53 -23h-117l375 826h117z" />
    <glyph glyph-name="zero" unicode="0" 
d="M623 540q8 -63 0 -149q-19 -191 -103.5 -300.5t-231.5 -109.5q-226 0 -254 248q-9 72 0 162q18 183 103.5 295.5t231.5 112.5q114 0 177.5 -69t76.5 -190zM476 519q-9 73 -39 113.5t-81 40.5q-71 0 -116 -76t-58 -206q-7 -70 0 -135q17 -149 119 -149q72 0 117 75t57 209
q7 69 1 128z" />
    <glyph glyph-name="one" unicode="1" 
d="M404 0h-150l56 570l-142 -59l-28 119q152 49 207 150h134z" />
    <glyph glyph-name="two" unicode="2" 
d="M629 626q2 -32 0 -49q-8 -85 -66 -149t-180 -119q-75 -33 -126 -81.5t-58 -98.5h387l-12 -129h-549l8 81q34 208 269 319q91 43 131.5 83t44.5 85q2 14 0 26q-4 38 -34 59.5t-83 21.5q-55 0 -95 -40.5t-49 -108.5l-131 34q15 108 97.5 173.5t197.5 65.5q110 0 174.5 -47
t73.5 -126z" />
    <glyph glyph-name="three" unicode="3" 
d="M598 641q2 -14 0 -43q-7 -72 -50.5 -118t-110.5 -61q59 -10 100.5 -48.5t48.5 -102.5q3 -24 0 -51q-11 -111 -92 -173.5t-227 -62.5q-115 0 -183 49.5t-84 137.5l133 53q7 -55 47 -86t97 -31q63 0 111 32.5t53 85.5v30q-10 94 -143 94h-98l11 126h84q61 0 105 29.5
t49 76.5v23q-4 37 -32.5 57.5t-73.5 20.5q-56 0 -94.5 -28.5t-51.5 -74.5l-122 41q26 80 98.5 131t186.5 51q104 0 167 -42.5t71 -115.5z" />
    <glyph glyph-name="four" unicode="4" 
d="M617 164h-118l-16 -164h-139l16 164h-362l13 127l397 489h152l-49 -492h118zM158 288h214l32 313z" />
    <glyph glyph-name="five" unicode="5" 
d="M594 655h-351l-38 -192q22 26 68 44t96 18q96 0 162 -48t77 -145q4 -33 0 -73q-12 -132 -100.5 -205t-218.5 -73q-112 0 -184.5 51.5t-89.5 142.5l140 42q10 -54 49.5 -83t97.5 -29q61 0 108 40.5t54 113.5q3 21 1 43q-6 55 -43 83t-89 28q-43 0 -86 -24.5t-61 -61.5
l-135 28l77 425h479z" />
    <glyph glyph-name="six" unicode="6" 
d="M521 581q-29 100 -149 100q-77 0 -131 -64.5t-67 -198.5q25 40 77 68.5t109 28.5q100 0 170.5 -49t81.5 -144q4 -28 1 -64q-13 -131 -97 -204t-215 -73q-114 0 -185 63t-86 192q-7 57 1 141q22 215 116 318.5t238 103.5q199 0 252 -153zM470 288q-6 53 -42 81.5t-89 28.5
q-58 0 -103.5 -33t-63.5 -89q-2 -21 1 -37q7 -67 44.5 -104t92.5 -37q60 0 106.5 39t54.5 112q2 23 -1 39z" />
    <glyph glyph-name="seven" unicode="7" 
d="M647 677q-150 -115 -243 -306.5t-111 -371.5h-153q19 176 112.5 360t204.5 290h-369l13 131h556z" />
    <glyph glyph-name="eight" unicode="8" 
d="M614 637q3 -17 1 -41q-12 -130 -121 -171q106 -39 119 -145q3 -27 0 -58q-11 -104 -100 -172.5t-225 -68.5q-118 0 -192.5 52.5t-84.5 139.5q-3 24 0 49q7 73 48 126.5t115 75.5q-80 32 -90 119q-3 26 0 53q9 91 89 147t196 56q104 0 170.5 -43.5t74.5 -118.5zM478 607
q-4 38 -37 60.5t-83 22.5q-56 0 -95.5 -28t-43.5 -76q-1 -7 1 -21q4 -37 36.5 -59.5t81.5 -22.5q57 0 96 28.5t44 74.5v21zM467 257q-5 44 -42.5 70t-98.5 26q-70 0 -115.5 -33.5t-50.5 -88.5q-1 -15 0 -28q6 -50 46 -77.5t95 -27.5q64 0 112 35t54 98q2 14 0 26z" />
    <glyph glyph-name="nine" unicode="9" 
d="M621 546q6 -64 -1 -141q-42 -424 -354 -424q-203 0 -257 159l117 65q14 -51 54.5 -78.5t98.5 -27.5q171 0 198 265q-25 -42 -76.5 -70t-109.5 -28q-100 0 -170.5 49t-81.5 144q-4 35 0 63q12 131 96 204t215 73q114 0 185 -62.5t86 -190.5zM478 541q-7 67 -44.5 104
t-92.5 37q-61 0 -107 -38.5t-53 -112.5q-3 -20 0 -38q6 -53 42.5 -81t89.5 -28q58 0 103 32.5t64 89.5q1 16 -2 35z" />
    <glyph glyph-name="colon" unicode=":" horiz-adv-x="400" 
d="M263 398h-151l15 157h151zM223 0h-151l15 157h151z" />
    <glyph glyph-name="semicolon" unicode=";" horiz-adv-x="400" 
d="M262 397h-151l16 158h151zM224 8q-11 -107 -95 -154l-48 47q31 13 50.5 40t22.5 59h-82l16 158h151z" />
    <glyph glyph-name="less" unicode="&#x3c;" 
d="M62 211l-15 131l448 250l15 -133l-328 -182l369 -178l15 -137z" />
    <glyph glyph-name="equal" unicode="=" 
d="M31 343l-13 114h550l13 -114h-550zM57 111l-13 115h550l13 -115h-550z" />
    <glyph glyph-name="greater" unicode="&#x3e;" 
d="M132 -38l-15 137l327 178l-368 182l-15 133l504 -250l15 -131z" />
    <glyph glyph-name="question" unicode="?" 
d="M613 630q3 -16 1 -38q-7 -69 -38 -115.5t-92 -84.5q-3 -2 -18.5 -12t-18.5 -12t-15 -10.5t-15 -12t-11.5 -11.5t-11 -14t-7 -15t-6 -18t-2.5 -20q-4 -24 -4 -45h-134q0 28 4 54q6 65 37.5 106.5t92.5 78.5q81 50 88 120v20q-5 36 -36 58t-77 22q-54 0 -92 -35t-47 -95
l-132 21q15 105 97.5 166t197.5 61q100 0 165.5 -47t73.5 -122zM360 0h-147l15 154h147z" />
    <glyph glyph-name="at" unicode="@" horiz-adv-x="891" 
d="M793 444q6 -49 -1 -96.5t-26.5 -90t-59.5 -68.5t-95 -26q-77 0 -116 51q-16 -26 -48.5 -41t-70.5 -15q-87 0 -142.5 54.5t-64.5 138.5q-14 125 37.5 202.5t145.5 77.5q76 0 107 -57l4 46l123 -25q-17 -216 -20 -248q0 -20 1 -28q5 -48 46 -50h3q40 0 64 44t15 130
q-14 124 -93.5 201.5t-222.5 77.5q-140 0 -221.5 -93t-64.5 -240q17 -151 115 -238t232 -87q208 0 310 117l51 -65q-59 -71 -141 -102.5t-211 -31.5q-185 0 -307.5 110.5t-143.5 297.5q-21 181 84.5 295t287.5 114q183 0 294.5 -99.5t128.5 -255.5zM448 457q-5 28 -26 45
t-51 17q-38 0 -61.5 -41t-14.5 -117q5 -45 28 -66.5t52 -21.5q55 0 63 54q5 33 10 130z" />
    <glyph glyph-name="A" unicode="A" horiz-adv-x="727" 
d="M526 0l-50 203h-286l-91 -203h-155l348 780h188l192 -780h-146zM446 328q-58 212 -67 294q0 2 -0.5 6t-0.5 6h-8q-8 -32 -39 -108.5t-59 -137.5l-27 -60h201z" />
    <glyph glyph-name="B" unicode="B" horiz-adv-x="722" 
d="M642 625q2 -21 -1 -40q-6 -68 -42.5 -111.5t-95.5 -54.5l1 -2q56 -6 97.5 -45t48.5 -103q3 -24 0 -51q-10 -99 -87.5 -158.5t-199.5 -59.5h-327l77 780h308q94 0 153.5 -42.5t67.5 -112.5zM492 580q-4 39 -35 59.5t-73 20.5h-135l-20 -197h145q50 0 82 24.5t36 70.5
q2 8 0 22zM503 260q-4 42 -41 65t-89 23h-155l-22 -224h159q62 0 102.5 30t46.5 84q1 8 -1 22z" />
    <glyph glyph-name="C" unicode="C" horiz-adv-x="729" 
d="M603 560q-17 47 -63 77.5t-102 30.5q-94 0 -163 -74.5t-81 -200.5q-4 -45 1 -92q10 -91 61.5 -139t127.5 -48q57 0 112.5 31.5t83.5 81.5l82 -92q-45 -71 -124.5 -112.5t-178.5 -41.5q-136 0 -222 77.5t-102 214.5q-6 55 0 120q17 182 129 294t275 112q101 0 171 -42
t96 -110z" />
    <glyph glyph-name="D" unicode="D" horiz-adv-x="791" 
d="M724 495q4 -49 0 -105q-17 -175 -127 -282.5t-276 -107.5h-285l77 780h281q139 0 227 -76.5t103 -208.5zM574 469q-11 88 -66 136.5t-145 48.5h-113l-51 -528h117q107 0 176.5 73t80.5 192q4 39 1 78z" />
    <glyph glyph-name="E" unicode="E" horiz-adv-x="678" 
d="M627 655h-379l-19 -193h329l-12 -122h-329l-20 -215h398l-13 -125h-546l77 780h527z" />
    <glyph glyph-name="F" unicode="F" horiz-adv-x="636" 
d="M609 655h-359l-20 -214h315l-12 -121h-315l-32 -320h-150l77 780h509z" />
    <glyph glyph-name="G" unicode="G" horiz-adv-x="784" 
d="M616 558q-22 54 -68 84.5t-111 30.5q-99 0 -168.5 -75t-81.5 -205q-4 -50 0 -92q11 -95 65 -146t132 -51q122 0 171 76l14 131h-189l11 124h318l-30 -312q-95 -142 -307 -142q-143 0 -232 77t-105 216q-6 54 0 119q18 185 129 295.5t271 110.5q110 0 182 -41.5
t100 -111.5z" />
    <glyph glyph-name="H" unicode="H" horiz-adv-x="792" 
d="M646 0h-151l33 341h-309l-33 -341h-150l77 780h150l-31 -314h309l31 314h151z" />
    <glyph glyph-name="I" unicode="I" horiz-adv-x="342" 
d="M192 0h-152l77 780h152z" />
    <glyph glyph-name="J" unicode="J" horiz-adv-x="484" 
d="M349 168q-10 -91 -72.5 -139t-163.5 -48q-83 0 -140 18l3 130q62 -23 121 -23q43 0 72 23t33 68l57 583h150z" />
    <glyph glyph-name="K" unicode="K" horiz-adv-x="706" 
d="M390 457l279 -457h-173l-206 363l-81 -73l-27 -290h-146l77 780h146l-30 -311l318 311h173z" />
    <glyph glyph-name="L" unicode="L" horiz-adv-x="621" 
d="M537 0h-501l77 780h150l-64 -646h351z" />
    <glyph glyph-name="M" unicode="M" horiz-adv-x="934" 
d="M788 0h-136l38 388q14 128 37 271h-5q-8 -62 -46 -161l-191 -498h-149l-99 496l-8 56q-7 63 -7 107h-5q-5 -156 -17 -274l-38 -385h-126l77 780h205l97 -502q3 -18 3 -19q2 -19 3.5 -43t2 -45t0.5 -25q0 -1 1 -2h3q1 3 6 28.5t12.5 55.5t13.5 49l193 503h212z" />
    <glyph glyph-name="N" unicode="N" horiz-adv-x="789" 
d="M643 0h-184l-186 450q-42 119 -49 183h-3q0 -3 -0.5 -64.5t-2 -113.5t-5.5 -93l-36 -362h-141l77 780h179l187 -447q51 -133 56 -179l5 -1q-3 37 -2.5 121t5.5 132l37 374h140z" />
    <glyph glyph-name="O" unicode="O" horiz-adv-x="806" 
d="M734 509q7 -62 0 -117q-17 -184 -123 -297.5t-266 -113.5q-132 0 -213.5 78.5t-96.5 213.5q-7 61 -1 119q18 180 124.5 293.5t267.5 113.5q131 0 212 -78.5t96 -211.5zM583 488q-10 86 -54.5 134.5t-114.5 48.5q-86 0 -151 -76.5t-78 -202.5q-4 -46 1 -95
q10 -88 55.5 -138t116.5 -50q86 0 149.5 77.5t75.5 205.5q5 59 0 96z" />
    <glyph glyph-name="P" unicode="P" horiz-adv-x="701" 
d="M654 585q4 -28 1 -64q-12 -119 -88 -189.5t-194 -70.5h-164l-25 -261h-148l77 780h314q96 0 156.5 -53t70.5 -142zM507 554q-6 49 -40.5 75t-86.5 26h-134l-26 -269h135q60 0 103 35t49 99v11v12.5v10.5z" />
    <glyph glyph-name="Q" unicode="Q" horiz-adv-x="802" 
d="M736 510q6 -54 0 -115q-11 -115 -60 -205t-128 -142q51 -60 143 -119l-142 -74q-65 45 -137 140q-22 -8 -67 -8q-132 0 -213 77.5t-96 211.5q-7 54 -1 119q17 180 123.5 292t267.5 112q132 0 213.5 -78t96.5 -211zM587 491q-10 88 -56 137t-117 49q-87 0 -153 -77.5
t-78 -204.5q-5 -51 0 -96q10 -88 57 -139t118 -51q88 0 152 78.5t77 207.5q5 53 0 96z" />
    <glyph glyph-name="R" unicode="R" horiz-adv-x="726" 
d="M657 608q3 -25 0 -53q-18 -173 -162 -217l158 -338h-175l-124 313h-141l-31 -313h-146l77 780h315q96 0 157.5 -46t71.5 -126zM505 573q-4 40 -36 61.5t-81 21.5h-142l-22 -226h144q57 0 94 30.5t43 87.5q1 13 0 25z" />
    <glyph glyph-name="S" unicode="S" horiz-adv-x="698" 
d="M505 566q-30 110 -146 110q-60 0 -96 -26t-41 -65v-17q6 -47 91 -76l115 -39q160 -56 174 -177q1 -25 0 -53q-11 -115 -92.5 -178.5t-218.5 -63.5q-115 0 -187.5 53.5t-95.5 149.5l119 75q18 -68 67 -109.5t110 -41.5q65 0 102.5 27t42.5 73q1 8 1 24q-7 59 -104 95
l-110 39q-75 28 -112.5 65t-44.5 93q-3 25 0 54q9 94 88 157.5t199 63.5q208 0 256 -155z" />
    <glyph glyph-name="T" unicode="T" horiz-adv-x="624" 
d="M616 655h-220l-64 -655h-151l64 655h-219l13 125h590z" />
    <glyph glyph-name="U" unicode="U" horiz-adv-x="792" 
d="M672 262q-13 -127 -106 -204t-227 -77q-117 0 -191.5 57.5t-85.5 156.5q-4 25 0 67l51 518h150l-50 -505q-3 -26 -1 -51q7 -58 43.5 -87.5t96.5 -29.5q73 0 120 43t55 125l50 505h146z" />
    <glyph glyph-name="V" unicode="V" horiz-adv-x="710" 
d="M394 0h-190l-173 780h154l106 -499q13 -73 16 -104q0 -3 0.5 -9.5t1.5 -9.5h4q16 62 41 124l202 498h164z" />
    <glyph glyph-name="W" unicode="W" horiz-adv-x="956" 
d="M706 0h-165l-48 468q-9 83 -4 171h-2q-10 -81 -38 -171l-138 -468h-170l-95 780h138l50 -472q6 -52 -1 -159h3q15 94 33 157l144 474h164l56 -473q0 -4 1 -6q4 -39 2 -149h3q19 122 28 153l139 475h146z" />
    <glyph glyph-name="X" unicode="X" horiz-adv-x="666" 
d="M397 403l206 -403h-159l-137 274l-183 -274h-171l281 415l-193 365h155l129 -255l168 255h172z" />
    <glyph glyph-name="Y" unicode="Y" horiz-adv-x="632" 
d="M364 272l-27 -272h-151l27 272l-202 508h144l139 -365l213 365h158z" />
    <glyph glyph-name="Z" unicode="Z" horiz-adv-x="683" 
d="M638 669l-448 -544h395l-13 -125h-568l12 120l444 535h-365l13 125h541z" />
    <glyph glyph-name="bracketleft" unicode="[" horiz-adv-x="400" 
d="M402 721h-158l-75 -762h158l-11 -109h-277l96 980h277z" />
    <glyph glyph-name="backslash" unicode="\" horiz-adv-x="400" 
d="M229 -23l-211 826h117l211 -826h-117z" />
    <glyph glyph-name="bracketright" unicode="]" horiz-adv-x="400" 
d="M221 -150h-277l11 109h159l75 762h-159l10 109h277z" />
    <glyph glyph-name="asciicircum" unicode="^" 
d="M481 299l-128 342l-195 -342l-100 53l226 428h164l145 -428z" />
    <glyph glyph-name="underscore" unicode="_" horiz-adv-x="500" 
d="M429 -160h-500l9 84h500z" />
    <glyph glyph-name="grave" unicode="`" horiz-adv-x="400" 
d="M295 600l-209 130l81 104l199 -134z" />
    <glyph glyph-name="a" unicode="a" horiz-adv-x="602" 
d="M515 -7q-58 -13 -103.5 5t-49.5 61q-57 -71 -205 -71q-83 0 -123 39t-35 110q7 80 59.5 127t153.5 69q141 30 143 68q3 32 -17.5 44t-71.5 12q-40 0 -93.5 -25t-80.5 -60l-48 102q87 93 244 93q117 0 171 -43t44 -133l-23 -237q-4 -32 16.5 -42.5t57.5 -2.5zM349 288
q-27 -24 -112 -46q-48 -12 -72 -32t-26 -59q-2 -27 14.5 -41t50.5 -14q40 0 80.5 21.5t53.5 56.5z" />
    <glyph glyph-name="b" unicode="b" horiz-adv-x="649" 
d="M581 373q4 -38 -1 -95q-14 -140 -87 -215t-183 -75q-55 0 -98.5 21t-60.5 55l-32 -64h-103l77 780h142l-28 -279q21 30 64.5 48t95.5 18q91 0 147 -50t67 -144zM436 341q-6 55 -36 83.5t-80 28.5t-88.5 -36t-43.5 -89l-16 -153q39 -76 115 -76q59 0 100 46t49 133
q4 30 0 63z" />
    <glyph glyph-name="c" unicode="c" horiz-adv-x="584" 
d="M477 382q-42 70 -137 70q-66 0 -120 -45t-63 -129q-2 -27 1 -47q7 -63 49 -96t101 -33q43 0 86 19.5t71 54.5l37 -104q-88 -84 -228 -84q-104 0 -176 56t-84 160q-5 38 -1 74q14 133 103 211t216 78q132 0 205 -73z" />
    <glyph glyph-name="d" unicode="d" horiz-adv-x="656" 
d="M530 0h-118l8 74q-25 -43 -75.5 -64.5t-105.5 -21.5q-94 0 -154 52t-72 150q-5 39 0 87q14 137 94 213.5t188 76.5q103 0 143 -57l27 270h142zM429 371q-13 38 -43 60.5t-73 22.5q-60 0 -103.5 -46.5t-52.5 -132.5q-4 -31 -1 -59q7 -57 40 -86.5t84 -29.5t90.5 36
t43.5 89z" />
    <glyph glyph-name="e" unicode="e" horiz-adv-x="612" 
d="M547 364q4 -42 -2 -95l-407 -51q1 -3 1 -9q6 -51 44.5 -79.5t97.5 -28.5q54 0 103 24.5t79 68.5l62 -86q-52 -61 -114 -90.5t-150 -29.5q-105 0 -171 56t-77 155q-4 29 0 79q13 127 94 208t208 81q99 0 160 -54t72 -149zM419 370q-4 40 -35.5 63t-80.5 23
q-62 0 -104 -35.5t-52 -101.5l273 36q0 3 -0.5 8t-0.5 7z" />
    <glyph glyph-name="f" unicode="f" horiz-adv-x="355" 
d="M371 683h-13q-71 0 -93 -15.5t-27 -56.5l-5 -56h107l-12 -111h-101l-43 -444h-142l43 444h-79l12 111h79l6 59q9 98 63 141t192 44z" />
    <glyph glyph-name="g" unicode="g" horiz-adv-x="644" 
d="M520 20q-11 -113 -86.5 -168.5t-230.5 -55.5q-101 0 -175 19l-19 131q91 -33 202 -33q87 0 127.5 28.5t46.5 86.5l5 56q-23 -27 -65.5 -43.5t-89.5 -16.5q-92 0 -151 48.5t-69 140.5q-4 36 0 79q12 130 87 202.5t181 72.5q125 0 160 -70l26 58h104zM418 374
q-27 80 -115 80q-60 0 -100.5 -41t-48.5 -122q-3 -30 0 -54q7 -55 38.5 -83t80.5 -28q50 0 89 32.5t44 80.5z" />
    <glyph glyph-name="h" unicode="h" horiz-adv-x="652" 
d="M565 426q3 -21 0 -43l-37 -383h-143l34 350q1 15 0 28q-4 36 -28 55.5t-61 19.5q-45 0 -82 -24t-54 -66l-36 -363h-142l77 780h142l-28 -282q53 69 174 69q78 0 127.5 -38t56.5 -103z" />
    <glyph glyph-name="i" unicode="i" horiz-adv-x="290" 
d="M227 636h-148l14 144h148zM162 0h-143l55 555h143z" />
    <glyph glyph-name="j" unicode="j" horiz-adv-x="302" 
d="M240 636h-147l14 144h147zM174 -14q-10 -102 -73.5 -143.5t-204.5 -41.5l-24 120h11q91 0 118.5 18t32.5 75l54 541h142z" />
    <glyph glyph-name="k" unicode="k" horiz-adv-x="575" 
d="M337 328l196 -328h-149l-142 240l-69 -67l-17 -173h-136l77 780h142l-48 -449l213 224h157z" />
    <glyph glyph-name="l" unicode="l" horiz-adv-x="293" 
d="M164 0h-145l77 780h145z" />
    <glyph glyph-name="m" unicode="m" horiz-adv-x="905" 
d="M818 433q2 -31 0 -49l-38 -384h-142l34 350q2 29 1 40q-7 61 -71 61q-39 0 -67 -27t-33 -68l-35 -356h-141l34 350q2 29 1 40q-7 61 -69 61q-64 0 -97 -79l-37 -372h-142l55 555h130l-7 -64q50 76 161 76q52 0 88 -23.5t49 -63.5q21 40 68.5 63.5t106.5 23.5
q63 0 103 -36t48 -98z" />
    <glyph glyph-name="n" unicode="n" horiz-adv-x="652" 
d="M565 415q1 -23 0 -45l-37 -370h-143l34 350q1 15 0 28q-4 36 -28 55.5t-61 19.5q-45 0 -82 -24t-54 -66l-36 -363h-142l55 555h130l-7 -71q50 83 188 83q77 0 126 -42t57 -110z" />
    <glyph glyph-name="o" unicode="o" horiz-adv-x="649" 
d="M580 356q4 -37 0 -79q-13 -132 -97 -210.5t-215 -78.5q-109 0 -176.5 56.5t-78.5 155.5q-4 29 0 77q13 132 98 211t215 79q110 0 176.5 -56.5t77.5 -154.5zM436 333q-7 57 -39 88.5t-83 31.5q-62 0 -105.5 -47.5t-51.5 -128.5q-2 -31 1 -54q6 -57 38.5 -89.5t82.5 -32.5
q64 0 106.5 47t50.5 129q3 30 0 56z" />
    <glyph glyph-name="p" unicode="p" horiz-adv-x="649" 
d="M580 369q5 -48 0 -91q-14 -140 -89 -215t-187 -75q-41 0 -81.5 15t-60.5 39l-23 -235h-142l74 748h129l-7 -77q18 40 67 64.5t101 24.5q92 0 150 -51t69 -147zM436 341q-6 55 -36 83.5t-80 28.5t-88.5 -36t-43.5 -89l-16 -153q39 -76 115 -76q59 0 100 46t49 133
q4 30 0 63z" />
    <glyph glyph-name="q" unicode="q" horiz-adv-x="656" 
d="M514 -193h-141l24 245q-21 -29 -62.5 -46.5t-91.5 -17.5q-94 0 -155 52.5t-72 150.5q-5 39 0 86q14 137 93 213.5t186 76.5q60 0 101.5 -20t59.5 -52l28 60h104zM432 371q-13 38 -43 60.5t-73 22.5q-63 0 -105 -46t-51 -133q-4 -31 -1 -59q7 -57 40 -86.5t84 -29.5
t90.5 36t43.5 89z" />
    <glyph glyph-name="r" unicode="r" horiz-adv-x="422" 
d="M392 445q-152 29 -197 -75l-37 -370h-142l55 555h124l-6 -57q32 36 75.5 52t116.5 17z" />
    <glyph glyph-name="s" unicode="s" horiz-adv-x="558" 
d="M432 384q-56 80 -163 80q-82 0 -89 -53v-11q2 -18 24.5 -30t77.5 -24q95 -20 143 -57t55 -95q2 -25 0 -39q-8 -81 -73.5 -124t-182.5 -43q-76 0 -139 28t-96 79l71 100q28 -43 80 -70.5t100 -27.5q87 0 94 57q1 5 1 14q-3 24 -30.5 39.5t-90.5 29.5q-164 34 -175 136
q-3 16 0 34q6 71 70.5 115.5t171.5 44.5q75 0 132.5 -23.5t84.5 -63.5z" />
    <glyph glyph-name="t" unicode="t" horiz-adv-x="391" 
d="M333 444h-95l-24 -258q-3 -27 -2 -41q4 -26 26.5 -32.5t93.5 -6.5l-41 -118q-114 0 -165 24t-58 87q-3 25 0 57l28 288h-79l12 111h85l17 174h136l-17 -174h95z" />
    <glyph glyph-name="u" unicode="u" horiz-adv-x="652" 
d="M526 0h-130l7 70q-25 -40 -74.5 -61t-111.5 -21q-77 0 -126.5 40t-57.5 106q-3 21 0 44l37 377h142l-34 -344q-1 -15 0 -28q4 -36 28.5 -55.5t61.5 -19.5q44 0 81 23.5t54 66.5l36 357h142z" />
    <glyph glyph-name="v" unicode="v" horiz-adv-x="555" 
d="M302 0h-154l-150 554h145l78 -304q8 -44 10 -66q3 -28 3 -54h3q7 46 36 120l131 304h154z" />
    <glyph glyph-name="w" unicode="w" horiz-adv-x="810" 
d="M597 0h-158l-42 335q-6 55 2 117h-3q-14 -87 -24 -117l-112 -335h-166l-95 555h144l49 -343v-3q6 -44 -1 -109h3q1 17 7.5 56.5t11.5 53.5l114 345h158l50 -348q1 -1 1 -3q1 -12 -3 -104h3q12 87 18 107l115 348h137z" />
    <glyph glyph-name="x" unicode="x" horiz-adv-x="531" 
d="M317 285l173 -285h-149l-106 177l-136 -177h-164l228 296l-155 259h144l93 -153l118 153h159z" />
    <glyph glyph-name="y" unicode="y" horiz-adv-x="576" 
d="M309 -29q-41 -95 -110 -134.5t-188 -39.5l-24 119h11q88 0 121 20t65 89l-171 529h142l88 -280q9 -31 15 -77l3 -38h2q11 45 36 114l114 281h148z" />
    <glyph glyph-name="z" unicode="z" horiz-adv-x="546" 
d="M490 461l-317 -344h297l-12 -117h-478l10 92l319 346h-264l12 117h443z" />
    <glyph glyph-name="braceleft" unicode="{" horiz-adv-x="400" 
d="M390 739h-39q-86 0 -84 -92q-1 -23 3.5 -95.5t1.5 -104.5q-9 -92 -79 -107q52 -11 58 -72q3 -16 0 -35q-3 -32 -22.5 -104.5t-22.5 -95.5q-4 -24 -3 -42q6 -50 69 -50h39l-27 -100h-47q-62 0 -106.5 27t-50.5 82q-3 25 2 51q4 23 23 101t23 107q3 18 1 34q-4 40 -47 40
h-23l11 114h23q28 0 43 17t18 58q2 26 -1.5 103t-2.5 105q0 81 54 120t131 39h47z" />
    <glyph glyph-name="bar" unicode="|" horiz-adv-x="345" 
d="M124 -23l-94 826h102l94 -826h-102z" />
    <glyph glyph-name="braceright" unicode="}" horiz-adv-x="400" 
d="M278 730q2 -14 -2 -50q-4 -20 -24 -99.5t-24 -108.5q-2 -26 -1 -35q5 -40 48 -40h23l-11 -114h-23q-28 0 -43 -16.5t-19 -57.5q-2 -28 2 -105t4 -103q-1 -56 -30 -93.5t-69 -52t-88 -14.5h-47l-7 100h39q84 0 84 92q1 21 -3.5 94t-1.5 106q9 92 78 107q-50 11 -57 71
q-2 17 0 36q3 33 22.5 106.5t22.5 93.5q4 24 3 41q-6 51 -69 51h-39l26 100h47q63 0 108 -27t51 -82z" />
    <glyph glyph-name="asciitilde" unicode="~" 
d="M587 264q-17 -21 -67 -42.5t-100 -21.5q-45 0 -110 31.5t-100 31.5q-90 -1 -170 -64l14 130q23 24 71 43t98 19q44 0 107 -30.5t102 -30.5q93 0 167 62z" />
    <glyph glyph-name="exclamdown" unicode="&#xa1;" horiz-adv-x="400" 
d="M275 427h-149l15 154h149zM215 -199h-151l69 547h120z" />
    <glyph glyph-name="cent" unicode="&#xa2;" horiz-adv-x="581" 
d="M478 388q-21 32 -54 48l-131 -333h16q42 0 84.5 18.5t71.5 52.5l34 -97q-85 -82 -222 -82q-17 0 -27 1l-41 -107l-73 22l39 100q-65 21 -107 70.5t-50 123.5q-4 35 0 75q13 132 100.5 208t214.5 76q37 0 58 -5l41 104l74 -20l-42 -103q40 -16 69 -47zM348 448q-7 1 -21 1
q-18 0 -27 -2q-57 -8 -100.5 -50.5t-50.5 -116.5q-1 -24 0 -45q8 -76 71 -107z" />
    <glyph glyph-name="sterling" unicode="&#xa3;" horiz-adv-x="743" 
d="M641 618q1 -10 1 -31l-120 -37v16q-7 55 -38 83.5t-80 28.5q-64 0 -99.5 -40t-30.5 -96q3 -28 15 -69t15 -54h218l-9 -94h-200q2 -59 -25.5 -113.5t-82.5 -86.5q43 12 81 12q39 0 79 -14q47 -17 84 -17q72 0 150 61l51 -100q-95 -78 -206 -78q-66 0 -129 28
q-32 13 -76 13q-94 0 -166 -41l-57 102q79 42 128 103.5t49 130.5h-158l9 94h137q-27 91 -30 116q-1 3 -1 8t-1 7q-5 103 71 173.5t196 70.5q102 0 158.5 -46.5t66.5 -129.5z" />
    <glyph glyph-name="currency" unicode="&#xa4;" horiz-adv-x="567" 
d="M461 69l-75 67q-51 -32 -113 -32q-61 0 -120 32l-60 -67l-87 78l60 67q-39 57 -46 117q-6 63 19 116l-75 68l69 78l75 -68q50 33 113 33q62 0 121 -32l59 67l87 -78l-59 -68q39 -56 45 -116q7 -62 -18 -117l74 -67zM367 331q-5 49 -44 84.5t-89 35.5q-49 0 -80.5 -35
t-26.5 -85q6 -50 45.5 -85t88.5 -35q50 0 81 35.5t25 84.5z" />
    <glyph glyph-name="yen" unicode="&#xa5;" 
d="M450 422h166l-9 -89h-209l-11 -106h209l-9 -90h-209l-13 -137h-151l13 137h-207l9 90h207l11 106h-207l9 89h164l-158 358h147l127 -315l191 315h159z" />
    <glyph glyph-name="brokenbar" unicode="&#xa6;" horiz-adv-x="345" 
d="M121 477v326h102v-326h-102zM121 -23v326h102v-326h-102z" />
    <glyph glyph-name="section" unicode="&#xa7;" horiz-adv-x="674" 
d="M460 631q-7 41 -35.5 65.5t-71.5 24.5q-45 0 -70 -16.5t-27 -42.5q-1 -6 -1 -16q4 -36 70 -58l104 -33q81 -25 121.5 -58t46.5 -86q2 -12 0 -41q-6 -60 -42.5 -97.5t-100.5 -48.5q60 -26 67 -96q3 -13 1 -30q-8 -87 -67.5 -130t-177.5 -43q-200 0 -231 172l116 39
q11 -105 124 -105q104 0 110 69v17q-6 43 -76 67l-108 38q-82 29 -121.5 61.5t-45.5 82.5q-2 21 1 41q5 56 39.5 91.5t91.5 46.5q-43 36 -49 85q-2 15 0 30q7 72 71 118.5t163 46.5q93 0 146.5 -40t63.5 -116zM466 383q-4 47 -84 73l-87 27q-54 0 -86 -19.5t-34 -49.5v-6v-7
v-6q3 -25 22 -41.5t61 -31.5l87 -30q116 0 121 67q1 13 0 24z" />
    <glyph glyph-name="copyright" unicode="&#xa9;" horiz-adv-x="777" 
d="M746 357q0 -148 -105 -252.5t-253 -104.5t-252.5 104.5t-104.5 252.5t104.5 252.5t252.5 104.5t253 -104.5t105 -252.5zM686 357q0 122 -87.5 209.5t-209.5 87.5t-209.5 -87.5t-87.5 -209.5t87.5 -209.5t209.5 -87.5t209.5 87.5t87.5 209.5zM569 219q-53 -99 -172 -99
q-91 0 -151 63.5t-60 174.5q0 100 60 165.5t149 65.5q114 0 168 -91l-77 -76q-34 63 -89 63q-43 0 -73 -34t-30 -93q0 -62 28 -97.5t76 -35.5q62 0 95 72z" />
    <glyph glyph-name="ordfeminine" unicode="&#xaa;" horiz-adv-x="315" 
d="M295 488q-25 -5 -40 -5q-14 0 -26 5q-15 7 -17 24q-50 -31 -101 -31q-91 0 -99 65q-1 9 0 19q1 42 30.5 67t91.5 38q76 18 77 33v3q-2 14 -49 14q-44 0 -96 -48l-36 67q67 55 141 55q58 0 88 -15t34 -50q1 -12 0 -26l-12 -119v-9l3 -7q6 -4 11 -4q7 0 24 6zM207 633
q-14 -11 -62 -22q-54 -14 -56 -36q1 -2 1 -4q2 -17 28 -17q56 0 84 28z" />
    <glyph glyph-name="guillemotleft" unicode="&#xab;" horiz-adv-x="640" 
d="M329 409l-205 -152l175 -152l-14 -143l-273 236l12 118l319 236zM578 409l-205 -152l175 -152l-14 -143l-273 236l12 118l319 236z" />
    <glyph glyph-name="logicalnot" unicode="&#xac;" horiz-adv-x="562" 
d="M381 92l-22 192h-361l-13 115h475l35 -307h-114z" />
    <glyph glyph-name="registered" unicode="&#xae;" horiz-adv-x="777" 
d="M746 357q0 -148 -105 -252.5t-253 -104.5t-252.5 104.5t-104.5 252.5t104.5 252.5t252.5 104.5t253 -104.5t105 -252.5zM686 357q0 122 -87.5 209.5t-209.5 87.5t-209.5 -87.5t-87.5 -209.5t87.5 -209.5t209.5 -87.5q113 0 196 75h-102l-94 162h-43v-162h-106v450h156
q77 0 123.5 -36t46.5 -105q0 -87 -71 -123l102 -175q89 87 89 211zM457 443q0 39 -67 39h-44v-84h45q33 0 49.5 8.5t16.5 36.5z" />
    <glyph glyph-name="macron" unicode="&#xaf;" horiz-adv-x="500" 
d="M422 684h-320l10 104h320z" />
    <glyph glyph-name="degree" unicode="&#xb0;" horiz-adv-x="315" 
d="M292 654q0 -55 -39.5 -95t-95.5 -40q-55 0 -95 39.5t-40 95.5q0 55 39.5 95t95.5 40q55 0 95 -40t40 -95zM226 655q0 28 -19.5 48t-49.5 20q-28 0 -48.5 -19.5t-20.5 -48.5t19.5 -49.5t49.5 -20.5q27 0 48 21t21 49z" />
    <glyph glyph-name="plusminus" unicode="&#xb1;" horiz-adv-x="660" 
d="M398 298v-146h-136v146h-201v126h201v147h136v-147h200v-126h-200zM61 3v120h537v-120h-537z" />
    <glyph glyph-name="uni00B2" unicode="&#xb2;" horiz-adv-x="360" 
d="M348 692q2 -13 0 -27q-5 -47 -37.5 -82t-100.5 -65q-66 -28 -82 -62h201l-9 -96h-315l6 68q17 99 148 160q81 40 84 71v8q-3 32 -48 32q-52 0 -64 -76l-95 20q8 68 56 108t114 40q64 0 100.5 -27t41.5 -72z" />
    <glyph glyph-name="uni00B3" unicode="&#xb3;" horiz-adv-x="360" 
d="M339 703q1 -12 0 -25q-3 -31 -20 -55t-40 -32q50 -16 57 -75q2 -12 0 -28q-5 -62 -50.5 -98t-124.5 -36q-64 0 -104.5 32.5t-48.5 86.5l98 39v-2q3 -29 21.5 -46.5t41.5 -17.5q56 0 61 44v11q-4 34 -58 34h-54l9 91h47q25 0 41.5 12t18.5 30v8q-3 28 -39 28
q-45 0 -59 -54l-93 28q39 116 164 116q58 0 92.5 -24.5t39.5 -66.5z" />
    <glyph glyph-name="paragraph" unicode="&#xb6;" horiz-adv-x="656" 
d="M514 -131h-110l80 812h-93l-80 -812h-113l47 476q-29 4 -56.5 13.5t-57.5 28t-51 52t-26 78.5q-3 28 0 61q10 102 83.5 159.5t175.5 57.5h292z" />
    <glyph glyph-name="periodcentered" unicode="&#xb7;" horiz-adv-x="345" 
d="M209 176h-149l16 160h149z" />
    <glyph glyph-name="cedilla" unicode="&#xb8;" horiz-adv-x="500" 
d="M312 -95v-17q-5 -46 -41.5 -73t-99.5 -27q-64 0 -123 33l23 53q42 -26 83 -26q51 0 56 37v3l1 2q-3 21 -26 21q-14 0 -26 -8l-80 16l38 95l89 -4l-22 -46q22 6 42 6q35 0 58.5 -17.5t27.5 -47.5z" />
    <glyph glyph-name="uni00B9" unicode="&#xb9;" horiz-adv-x="360" 
d="M244 360h-105l26 277l-80 -25l-14 88q96 30 122 80h92z" />
    <glyph glyph-name="ordmasculine" unicode="&#xba;" horiz-adv-x="315" 
d="M313 679q2 -26 0 -41q-7 -70 -50.5 -112.5t-111.5 -42.5q-56 0 -91.5 30.5t-41.5 82.5q-2 20 0 42q7 69 51.5 111t111.5 42q57 0 91.5 -30t40.5 -82zM231 664q-3 27 -18 42.5t-39 15.5q-29 0 -49.5 -23t-23.5 -61q-2 -14 0 -26q3 -27 18.5 -43t38.5 -16q30 0 49.5 23
t23.5 62q2 14 0 26z" />
    <glyph glyph-name="guillemotright" unicode="&#xbb;" horiz-adv-x="640" 
d="M315 198l-319 -236l14 143l207 152l-177 152l14 143l273 -236zM564 198l-319 -236l14 143l207 152l-177 152l14 143l273 -236z" />
    <glyph glyph-name="onequarter" unicode="&#xbc;" horiz-adv-x="741" 
d="M123 -23h-107l529 826h107zM214 360h-105l26 277l-80 -25l-14 88q96 30 122 80h92zM670 61h-59l-6 -62h-100l6 62h-191l8 87l220 276h99l-26 -271h59zM445 153h76l11 114z" />
    <glyph glyph-name="onehalf" unicode="&#xbd;" horiz-adv-x="741" 
d="M123 -23h-107l529 826h107zM214 360h-105l26 277l-80 -25l-14 88q96 30 122 80h92zM689 332q2 -13 0 -27q-5 -47 -38 -82t-100 -65q-67 -28 -83 -62h201l-9 -96h-315l6 68q17 99 148 160q82 40 85 71q1 0 0 4v4q-3 32 -49 32q-51 0 -63 -76l-96 20q9 68 57 108t114 40
q64 0 100.5 -27t41.5 -72z" />
    <glyph glyph-name="threequarters" unicode="&#xbe;" horiz-adv-x="741" 
d="M163 -23h-107l529 826h107zM339 703q1 -12 0 -25q-3 -31 -20 -55t-40 -32q50 -16 57 -75q2 -12 0 -28q-5 -62 -50.5 -98t-124.5 -36q-64 0 -104.5 32.5t-48.5 86.5l98 39v-2q3 -29 21.5 -46.5t41.5 -17.5q56 0 61 44v11q-4 34 -58 34h-54l9 91h47q25 0 41.5 12t18.5 30v8
q-3 28 -39 28q-45 0 -59 -54l-93 28q39 116 164 116q58 0 92.5 -24.5t39.5 -66.5zM670 61h-59l-6 -62h-100l6 62h-191l8 87l220 276h99l-26 -271h59zM445 153h76l11 114z" />
    <glyph glyph-name="questiondown" unicode="&#xbf;" 
d="M435 443h-147l15 154h147zM584 25q-15 -105 -97.5 -166t-197.5 -61q-100 0 -165.5 47t-73.5 122q-3 16 -1 38q7 69 38 115.5t91 84.5q3 2 17 10.5t17 11t14 10t14 10.5t11.5 10t11 11.5t8 12.5t7 14.5t3.5 15.5t3 19q4 24 4 45h134q0 -28 -4 -54q-6 -65 -37.5 -106.5
t-92.5 -78.5q-82 -51 -89 -120v-19q4 -37 35.5 -59t78.5 -22q54 0 92 35t47 95z" />
    <glyph glyph-name="Agrave" unicode="&#xc0;" horiz-adv-x="727" 
d="M490 817l-222 108l99 93l176 -111zM526 0l-50 203h-286l-91 -203h-155l348 780h188l192 -780h-146zM446 328q-58 212 -67 294q0 2 -0.5 6t-0.5 6h-8q-8 -32 -39 -108.5t-59 -137.5l-27 -60h201z" />
    <glyph glyph-name="Aacute" unicode="&#xc1;" horiz-adv-x="727" 
d="M288 817l-35 90l196 111l83 -93zM526 0l-50 203h-286l-91 -203h-155l348 780h188l192 -780h-146zM446 328q-58 212 -67 294q0 2 -0.5 6t-0.5 6h-8q-8 -32 -39 -108.5t-59 -137.5l-27 -60h201z" />
    <glyph glyph-name="Acircumflex" unicode="&#xc2;" horiz-adv-x="727" 
d="M527 803l-132 85l-148 -85l-47 72l144 122h120l123 -122zM526 0l-50 203h-286l-91 -203h-155l348 780h188l192 -780h-146zM446 328q-58 212 -67 294q0 2 -0.5 6t-0.5 6h-8q-8 -32 -39 -108.5t-59 -137.5l-27 -60h201z" />
    <glyph glyph-name="Atilde" unicode="&#xc3;" horiz-adv-x="727" 
d="M571 875q-49 -49 -100 -49q-26 0 -78 31q-51 31 -68 31q-41 0 -102 -60l12 122q51 49 100 49q25 0 78 -31q52 -31 68 -31q43 0 102 60zM526 0l-50 203h-286l-91 -203h-155l348 780h188l192 -780h-146zM446 328q-58 212 -67 294q0 2 -0.5 6t-0.5 6h-8q-8 -32 -39 -108.5
t-59 -137.5l-27 -60h201z" />
    <glyph glyph-name="Adieresis" unicode="&#xc4;" horiz-adv-x="727" 
d="M350 840h-123l13 135h123zM550 840h-123l13 135h123zM526 0l-50 203h-286l-91 -203h-155l348 780h188l192 -780h-146zM446 328q-58 212 -67 294q0 2 -0.5 6t-0.5 6h-8q-8 -32 -39 -108.5t-59 -137.5l-27 -60h201z" />
    <glyph glyph-name="Aring" unicode="&#xc5;" horiz-adv-x="727" 
d="M520 950q1 -12 0 -25q-6 -51 -45 -86.5t-89 -35.5q-43 0 -74 27.5t-36 68.5q-2 12 0 26q4 50 44 86t90 36q43 0 74 -27.5t36 -69.5zM451 936q-2 19 -16 31.5t-33 12.5q-22 0 -39 -16t-19 -39v-12q2 -18 15.5 -29.5t32.5 -11.5q22 0 39.5 15t20.5 38q0 7 -1 11zM526 0
l-50 203h-286l-91 -203h-155l348 780h188l192 -780h-146zM446 328q-58 212 -67 294q0 2 -0.5 6t-0.5 6h-8q-8 -32 -39 -108.5t-59 -137.5l-27 -60h201z" />
    <glyph glyph-name="AE" unicode="&#xc6;" horiz-adv-x="904" 
d="M862 655h-291l-19 -193h246l-12 -122h-246l-20 -215h306l-13 -125h-434l19 195h-213l-117 -195h-144l476 780h475zM261 320h150l29 299z" />
    <glyph glyph-name="Ccedilla" unicode="&#xc7;" horiz-adv-x="729" 
d="M603 560q-17 47 -63 77.5t-102 30.5q-94 0 -163 -74.5t-81 -200.5q-4 -45 1 -92q10 -91 61.5 -139t127.5 -48q57 0 112.5 31.5t83.5 81.5l82 -92q-45 -71 -124.5 -112.5t-178.5 -41.5h-11l-8 -17q22 6 42 6q35 0 58.5 -17.5t27.5 -47.5v-17q-5 -46 -41.5 -73t-99.5 -27
q-64 0 -123 33l23 53q42 -26 83 -26q51 0 56 37v3l1 2q-3 21 -26 21q-14 0 -26 -8l-80 16l29 73q-97 24 -156.5 97t-72.5 184q-6 55 0 120q17 182 129 294t275 112q101 0 171 -42t96 -110z" />
    <glyph glyph-name="Egrave" unicode="&#xc8;" horiz-adv-x="678" 
d="M472 817l-222 108l99 93l176 -111zM627 655h-379l-19 -193h329l-12 -122h-329l-20 -215h398l-13 -125h-546l77 780h527z" />
    <glyph glyph-name="Eacute" unicode="&#xc9;" horiz-adv-x="678" 
d="M298 817l-35 90l196 111l83 -93zM627 655h-379l-19 -193h329l-12 -122h-329l-20 -215h398l-13 -125h-546l77 780h527z" />
    <glyph glyph-name="Ecircumflex" unicode="&#xca;" horiz-adv-x="678" 
d="M530 803l-132 85l-148 -85l-47 72l144 122h120l123 -122zM630 655h-379l-19 -193h329l-12 -122h-329l-20 -215h398l-13 -125h-546l77 780h527z" />
    <glyph glyph-name="Edieresis" unicode="&#xcb;" horiz-adv-x="678" 
d="M350 840h-123l13 135h123zM550 840h-123l13 135h123zM627 655h-379l-19 -193h329l-12 -122h-329l-20 -215h398l-13 -125h-546l77 780h527z" />
    <glyph glyph-name="Igrave" unicode="&#xcc;" horiz-adv-x="342" 
d="M291 817l-222 108l99 93l176 -111zM192 0h-152l77 780h152z" />
    <glyph glyph-name="Iacute" unicode="&#xcd;" horiz-adv-x="342" 
d="M102 817l-35 90l196 111l83 -93zM192 0h-152l77 780h152z" />
    <glyph glyph-name="Icircumflex" unicode="&#xce;" horiz-adv-x="342" 
d="M338 803l-132 85l-148 -85l-47 72l144 122h120l123 -122zM193 0h-152l77 780h152z" />
    <glyph glyph-name="Idieresis" unicode="&#xcf;" horiz-adv-x="342" 
d="M162 840h-123l13 135h123zM362 840h-123l13 135h123zM193 0h-152l77 780h152z" />
    <glyph glyph-name="Eth" unicode="&#xd0;" horiz-adv-x="791" 
d="M724 495q4 -49 0 -105q-17 -175 -127 -282.5t-276 -107.5h-285l33 333h-56l9 92h56l35 355h281q139 0 227 -76.5t103 -208.5zM574 469q-11 88 -66 136.5t-145 48.5h-113l-22 -229h183l-9 -92h-183l-20 -207h117q107 0 176.5 73t80.5 192q4 39 1 78z" />
    <glyph glyph-name="Ntilde" unicode="&#xd1;" horiz-adv-x="789" 
d="M608 875q-49 -49 -100 -49q-26 0 -78 31q-51 31 -68 31q-41 0 -102 -60l12 122q51 49 100 49q25 0 78 -31q52 -31 68 -31q43 0 102 60zM643 0h-184l-186 450q-42 119 -49 183h-3q0 -3 -0.5 -64.5t-2 -113.5t-5.5 -93l-36 -362h-141l77 780h179l187 -447q51 -133 56 -179
l5 -1q-3 37 -2.5 121t5.5 132l37 374h140z" />
    <glyph glyph-name="Ograve" unicode="&#xd2;" horiz-adv-x="806" 
d="M526 817l-222 108l99 93l176 -111zM734 509q7 -62 0 -117q-17 -184 -123 -297.5t-266 -113.5q-132 0 -213.5 78.5t-96.5 213.5q-7 61 -1 119q18 180 124.5 293.5t267.5 113.5q131 0 212 -78.5t96 -211.5zM583 488q-10 86 -54.5 134.5t-114.5 48.5q-86 0 -151 -76.5
t-78 -202.5q-4 -46 1 -95q10 -88 55.5 -138t116.5 -50q86 0 149.5 77.5t75.5 205.5q5 59 0 96z" />
    <glyph glyph-name="Oacute" unicode="&#xd3;" horiz-adv-x="806" 
d="M328 817l-35 90l196 111l83 -93zM734 509q7 -62 0 -117q-17 -184 -123 -297.5t-266 -113.5q-132 0 -213.5 78.5t-96.5 213.5q-7 61 -1 119q18 180 124.5 293.5t267.5 113.5q131 0 212 -78.5t96 -211.5zM583 488q-10 86 -54.5 134.5t-114.5 48.5q-86 0 -151 -76.5
t-78 -202.5q-4 -46 1 -95q10 -88 55.5 -138t116.5 -50q86 0 149.5 77.5t75.5 205.5q5 59 0 96z" />
    <glyph glyph-name="Ocircumflex" unicode="&#xd4;" horiz-adv-x="806" 
d="M566 803l-132 85l-148 -85l-47 72l144 122h120l123 -122zM734 509q7 -62 0 -117q-17 -184 -123 -297.5t-266 -113.5q-132 0 -213.5 78.5t-96.5 213.5q-7 61 -1 119q18 180 124.5 293.5t267.5 113.5q131 0 212 -78.5t96 -211.5zM583 488q-10 86 -54.5 134.5t-114.5 48.5
q-86 0 -151 -76.5t-78 -202.5q-4 -46 1 -95q10 -88 55.5 -138t116.5 -50q86 0 149.5 77.5t75.5 205.5q5 59 0 96z" />
    <glyph glyph-name="Otilde" unicode="&#xd5;" horiz-adv-x="806" 
d="M611 875q-49 -49 -100 -49q-26 0 -78 31q-51 31 -68 31q-41 0 -102 -60l12 122q51 49 100 49q25 0 78 -31q52 -31 68 -31q43 0 102 60zM734 509q7 -62 0 -117q-17 -184 -123 -297.5t-266 -113.5q-132 0 -213.5 78.5t-96.5 213.5q-7 61 -1 119q18 180 124.5 293.5
t267.5 113.5q131 0 212 -78.5t96 -211.5zM583 488q-10 86 -54.5 134.5t-114.5 48.5q-86 0 -151 -76.5t-78 -202.5q-4 -46 1 -95q10 -88 55.5 -138t116.5 -50q86 0 149.5 77.5t75.5 205.5q5 59 0 96z" />
    <glyph glyph-name="Odieresis" unicode="&#xd6;" horiz-adv-x="806" 
d="M390 840h-123l13 135h123zM590 840h-123l13 135h123zM734 509q7 -62 0 -117q-17 -184 -123 -297.5t-266 -113.5q-132 0 -213.5 78.5t-96.5 213.5q-7 61 -1 119q18 180 124.5 293.5t267.5 113.5q131 0 212 -78.5t96 -211.5zM583 488q-10 86 -54.5 134.5t-114.5 48.5
q-86 0 -151 -76.5t-78 -202.5q-4 -46 1 -95q10 -88 55.5 -138t116.5 -50q86 0 149.5 77.5t75.5 205.5q5 59 0 96z" />
    <glyph glyph-name="multiply" unicode="&#xd7;" horiz-adv-x="660" 
d="M415 281l197 -198l-86 -86l-197 197l-197 -197l-86 86l197 197l-198 199l86 86l198 -199l198 199l86 -86z" />
    <glyph glyph-name="Oslash" unicode="&#xd8;" horiz-adv-x="806" 
d="M699 636q28 -59 35 -127q7 -62 0 -117q-17 -184 -123 -297.5t-266 -113.5q-125 0 -204 70l-86 -90l-60 62l90 94q-39 65 -50 154q-7 62 -1 121q18 180 124.5 293.5t267.5 113.5q143 0 223 -91l80 82l59 -61zM546 599q-45 72 -132 72q-86 0 -151 -76.5t-78 -202.5
q-5 -53 0 -97q5 -35 13 -59zM584 490l-3 21l-338 -353q46 -49 115 -49q86 0 149.5 77.5t75.5 205.5q6 58 1 98z" />
    <glyph glyph-name="Ugrave" unicode="&#xd9;" horiz-adv-x="792" 
d="M517 817l-222 108l99 93l176 -111zM672 262q-13 -127 -106 -204t-227 -77q-117 0 -191.5 57.5t-85.5 156.5q-4 25 0 67l51 518h150l-50 -505q-3 -26 -1 -51q7 -58 43.5 -87.5t96.5 -29.5q73 0 120 43t55 125l50 505h146z" />
    <glyph glyph-name="Uacute" unicode="&#xda;" horiz-adv-x="792" 
d="M332 817l-35 90l196 111l83 -93zM672 262q-13 -127 -106 -204t-227 -77q-117 0 -191.5 57.5t-85.5 156.5q-4 25 0 67l51 518h150l-50 -505q-3 -26 -1 -51q7 -58 43.5 -87.5t96.5 -29.5q73 0 120 43t55 125l50 505h146z" />
    <glyph glyph-name="Ucircumflex" unicode="&#xdb;" horiz-adv-x="792" 
d="M564 803l-132 85l-148 -85l-47 72l144 122h120l123 -122zM672 262q-13 -127 -106 -204t-227 -77q-117 0 -191.5 57.5t-85.5 156.5q-4 25 0 67l51 518h150l-50 -505q-3 -26 -1 -51q7 -58 43.5 -87.5t96.5 -29.5q73 0 120 43t55 125l50 505h146z" />
    <glyph glyph-name="Udieresis" unicode="&#xdc;" horiz-adv-x="792" 
d="M388 840h-123l13 135h123zM588 840h-123l13 135h123zM672 262q-13 -127 -106 -204t-227 -77q-117 0 -191.5 57.5t-85.5 156.5q-4 25 0 67l51 518h150l-50 -505q-3 -26 -1 -51q7 -58 43.5 -87.5t96.5 -29.5q73 0 120 43t55 125l50 505h146z" />
    <glyph glyph-name="Yacute" unicode="&#xdd;" horiz-adv-x="632" 
d="M256 817l-35 90l196 111l83 -93zM364 272l-27 -272h-151l27 272l-202 508h144l139 -365l213 365h158z" />
    <glyph glyph-name="Thorn" unicode="&#xde;" horiz-adv-x="701" 
d="M643 471q4 -28 1 -64q-12 -119 -88 -189.5t-194 -70.5h-164l-14 -147h-148l77 780h148l-11 -114h166q96 0 156.5 -53t70.5 -142zM495 441q-6 48 -40 74t-86 26h-134l-26 -269h135q60 0 102.5 35t48.5 99q1 19 0 35z" />
    <glyph glyph-name="germandbls" unicode="&#xdf;" horiz-adv-x="640" 
d="M550 637q3 -24 0 -53q-8 -99 -88 -156q87 -44 98 -139q3 -24 0 -51q-12 -118 -74.5 -181.5t-156.5 -63.5q-82 0 -166 54l64 129q67 -50 113 -50q29 0 55 31t32 81q2 17 0 31q-10 92 -146 92h-66l12 122h66q62 0 91 29t32 72q2 8 0 21q-4 33 -29.5 51t-63.5 18
q-51 0 -83 -31.5t-37 -89.5l-55 -553h-133l55 553q11 115 79 179t186 64q91 0 148.5 -41t66.5 -118z" />
    <glyph glyph-name="agrave" unicode="&#xe0;" horiz-adv-x="602" 
d="M374 619l-191 118l99 93l145 -121zM515 -7q-58 -13 -103.5 5t-49.5 61q-57 -71 -205 -71q-83 0 -123 39t-35 110q7 80 59.5 127t153.5 69q141 30 143 68q3 32 -17.5 44t-71.5 12q-40 0 -93.5 -25t-80.5 -60l-48 102q87 93 244 93q117 0 171 -43t44 -133l-23 -237
q-4 -32 16.5 -42.5t57.5 -2.5zM349 288q-27 -24 -112 -46q-48 -12 -72 -32t-26 -59q-2 -27 14.5 -41t50.5 -14q40 0 80.5 21.5t53.5 56.5z" />
    <glyph glyph-name="aacute" unicode="&#xe1;" horiz-adv-x="602" 
d="M222 619l-35 90l167 121l83 -93zM515 -7q-58 -13 -103.5 5t-49.5 61q-57 -71 -205 -71q-83 0 -123 39t-35 110q7 80 59.5 127t153.5 69q141 30 143 68q3 32 -17.5 44t-71.5 12q-40 0 -93.5 -25t-80.5 -60l-48 102q87 93 244 93q117 0 171 -43t44 -133l-23 -237
q-4 -32 16.5 -42.5t57.5 -2.5zM349 288q-27 -24 -112 -46q-48 -12 -72 -32t-26 -59q-2 -27 14.5 -41t50.5 -14q40 0 80.5 21.5t53.5 56.5z" />
    <glyph glyph-name="acircumflex" unicode="&#xe2;" horiz-adv-x="602" 
d="M429 616l-121 95l-139 -95l-46 72l135 132h120l112 -132zM515 -7q-58 -13 -103.5 5t-49.5 61q-57 -71 -205 -71q-83 0 -123 39t-35 110q7 80 59.5 127t153.5 69q141 30 143 68q3 32 -17.5 44t-71.5 12q-40 0 -93.5 -25t-80.5 -60l-48 102q87 93 244 93q117 0 171 -43
t44 -133l-23 -237q-4 -32 16.5 -42.5t57.5 -2.5zM349 288q-27 -24 -112 -46q-48 -12 -72 -32t-26 -59q-2 -27 14.5 -41t50.5 -14q40 0 80.5 21.5t53.5 56.5z" />
    <glyph glyph-name="atilde" unicode="&#xe3;" horiz-adv-x="602" 
d="M485 694q-51 -49 -101 -49q-27 0 -77 31q-51 31 -70 31q-41 0 -101 -60l11 122q51 49 102 49q25 0 76 -31q54 -31 70 -31q23 0 45.5 13t55.5 47zM515 -7q-58 -13 -103.5 5t-49.5 61q-57 -71 -205 -71q-83 0 -123 39t-35 110q7 80 59.5 127t153.5 69q141 30 143 68
q3 32 -17.5 44t-71.5 12q-40 0 -93.5 -25t-80.5 -60l-48 102q87 93 244 93q117 0 171 -43t44 -133l-23 -237q-4 -32 16.5 -42.5t57.5 -2.5zM349 288q-27 -24 -112 -46q-48 -12 -72 -32t-26 -59q-2 -27 14.5 -41t50.5 -14q40 0 80.5 21.5t53.5 56.5z" />
    <glyph glyph-name="adieresis" unicode="&#xe4;" horiz-adv-x="602" 
d="M266 675h-123l14 135h123zM466 675h-123l14 135h123zM515 -7q-58 -13 -103.5 5t-49.5 61q-57 -71 -205 -71q-83 0 -123 39t-35 110q7 80 59.5 127t153.5 69q141 30 143 68q3 32 -17.5 44t-71.5 12q-40 0 -93.5 -25t-80.5 -60l-48 102q87 93 244 93q117 0 171 -43t44 -133
l-23 -237q-4 -32 16.5 -42.5t57.5 -2.5zM349 288q-27 -24 -112 -46q-48 -12 -72 -32t-26 -59q-2 -27 14.5 -41t50.5 -14q40 0 80.5 21.5t53.5 56.5z" />
    <glyph glyph-name="aring" unicode="&#xe5;" horiz-adv-x="602" 
d="M433 718q-5 -50 -44.5 -86t-89.5 -36t-82.5 36t-27.5 86t44.5 86t89.5 36t82.5 -36t27.5 -86zM365 718q2 23 -12.5 39t-36.5 16t-39.5 -16t-19.5 -39q-2 -22 11.5 -37.5t36.5 -15.5t40.5 15.5t19.5 37.5zM515 -7q-58 -13 -103.5 5t-49.5 61q-57 -71 -205 -71
q-83 0 -123 39t-35 110q7 80 59.5 127t153.5 69q141 30 143 68q3 32 -17.5 44t-71.5 12q-40 0 -93.5 -25t-80.5 -60l-48 102q87 93 244 93q117 0 171 -43t44 -133l-23 -237q-4 -32 16.5 -42.5t57.5 -2.5zM349 288q-27 -24 -112 -46q-48 -12 -72 -32t-26 -59q-2 -27 14.5 -41
t50.5 -14q40 0 80.5 21.5t53.5 56.5z" />
    <glyph glyph-name="ae" unicode="&#xe6;" horiz-adv-x="946" 
d="M871 370q5 -51 -2 -101l-381 -51q1 -4 1 -11q6 -51 40.5 -78.5t90.5 -27.5q51 0 95.5 24t74.5 69l59 -86q-52 -62 -108.5 -91t-140.5 -29q-136 0 -197 98q-88 -98 -246 -98q-144 0 -157 112q-3 16 -1 37q7 80 59.5 127t153.5 69q136 29 139 68v12q-6 44 -95 44
q-39 0 -88 -24.5t-76 -60.5l-48 102q87 93 234 93q143 0 192 -70q77 70 184 70q94 0 150 -52.5t67 -144.5zM749 372q-5 40 -32.5 62t-74.5 22q-59 0 -97 -35.5t-48 -101.5l253 36q0 3 -0.5 9t-0.5 8zM369 291q-30 -24 -132 -49q-49 -13 -75.5 -33.5t-28.5 -58.5v-11
q4 -43 71 -43q39 0 91.5 27t73.5 61q0 2 -0.5 5t-0.5 4q-4 34 1 98z" />
    <glyph glyph-name="ccedilla" unicode="&#xe7;" horiz-adv-x="584" 
d="M477 382q-42 70 -137 70q-66 0 -120 -45t-63 -129q-2 -27 1 -47q7 -63 49 -96t101 -33q43 0 86 19.5t71 54.5l37 -104q-88 -84 -228 -84h-6l-11 -24q23 6 42 6q35 0 58.5 -17.5t27.5 -47.5v-17q-5 -46 -41.5 -73t-99.5 -27q-64 0 -123 33l23 53q42 -26 83 -26q51 0 56 37
q0 1 1 3v2q-3 21 -26 21q-14 0 -26 -8l-80 16l33 81q-71 20 -116.5 72.5t-54.5 132.5q-5 37 -1 73q14 133 103 211t216 78q132 0 205 -73z" />
    <glyph glyph-name="egrave" unicode="&#xe8;" horiz-adv-x="612" 
d="M397 619l-191 118l99 93l145 -121zM547 364q4 -42 -2 -95l-407 -51q1 -3 1 -9q6 -51 44.5 -79.5t97.5 -28.5q54 0 103 24.5t79 68.5l62 -86q-52 -61 -114 -90.5t-150 -29.5q-105 0 -171 56t-77 155q-4 29 0 79q13 127 94 208t208 81q99 0 160 -54t72 -149zM419 370
q-4 40 -35.5 63t-80.5 23q-62 0 -104 -35.5t-52 -101.5l273 36q0 3 -0.5 8t-0.5 7z" />
    <glyph glyph-name="eacute" unicode="&#xe9;" horiz-adv-x="612" 
d="M232 619l-35 90l167 121l83 -93zM547 364q4 -42 -2 -95l-407 -51q1 -3 1 -9q6 -51 44.5 -79.5t97.5 -28.5q54 0 103 24.5t79 68.5l62 -86q-52 -61 -114 -90.5t-150 -29.5q-105 0 -171 56t-77 155q-4 29 0 79q13 127 94 208t208 81q99 0 160 -54t72 -149zM419 370
q-4 40 -35.5 63t-80.5 23q-62 0 -104 -35.5t-52 -101.5l273 36q0 3 -0.5 8t-0.5 7z" />
    <glyph glyph-name="ecircumflex" unicode="&#xea;" horiz-adv-x="612" 
d="M449 616l-121 95l-139 -95l-46 72l135 132h120l112 -132zM547 364q4 -42 -2 -95l-407 -51q1 -3 1 -9q6 -51 44.5 -79.5t97.5 -28.5q54 0 103 24.5t79 68.5l62 -86q-52 -61 -114 -90.5t-150 -29.5q-105 0 -171 56t-77 155q-4 29 0 79q13 127 94 208t208 81q99 0 160 -54
t72 -149zM419 370q-4 40 -35.5 63t-80.5 23q-62 0 -104 -35.5t-52 -101.5l273 36q0 3 -0.5 8t-0.5 7z" />
    <glyph glyph-name="edieresis" unicode="&#xeb;" horiz-adv-x="612" 
d="M285 675h-123l14 135h123zM485 675h-123l14 135h123zM547 364q4 -42 -2 -95l-407 -51q1 -3 1 -9q6 -51 44.5 -79.5t97.5 -28.5q54 0 103 24.5t79 68.5l62 -86q-52 -61 -114 -90.5t-150 -29.5q-105 0 -171 56t-77 155q-4 29 0 79q13 127 94 208t208 81q99 0 160 -54
t72 -149zM419 370q-4 40 -35.5 63t-80.5 23q-62 0 -104 -35.5t-52 -101.5l273 36q0 3 -0.5 8t-0.5 7z" />
    <glyph glyph-name="igrave" unicode="&#xec;" horiz-adv-x="290" 
d="M232 619l-191 118l99 93l145 -121zM162 0h-143l55 555h143z" />
    <glyph glyph-name="iacute" unicode="&#xed;" horiz-adv-x="290" 
d="M71 619l-35 90l167 121l83 -93zM162 0h-143l55 555h143z" />
    <glyph glyph-name="icircumflex" unicode="&#xee;" horiz-adv-x="290" 
d="M282 616l-121 95l-139 -95l-46 72l135 132h120l112 -132zM162 0h-143l55 555h143z" />
    <glyph glyph-name="idieresis" unicode="&#xef;" horiz-adv-x="290" 
d="M118 675h-123l14 135h123zM318 675h-123l14 135h123zM162 0h-143l55 555h143z" />
    <glyph glyph-name="eth" unicode="&#xf0;" horiz-adv-x="626" 
d="M504 684q48 -77 59 -178q11 -92 -10 -232q-8 -53 -29.5 -101.5t-57 -91t-91.5 -67.5t-126 -25q-97 0 -160 53.5t-74 152.5q-4 36 -1 84q14 129 93 208.5t199 79.5q30 0 70 -11.5t59 -27.5q-7 60 -49 109l-224 -91l-24 81l148 60q-6 1 -19 1q-72 0 -152 -38l-15 120
q80 31 168 31q109 0 178 -50l86 35l26 -80zM422 339q-12 113 -125 113q-64 0 -101 -46t-46 -127q-3 -33 0 -62q6 -53 34.5 -83t77.5 -30q66 0 109 47.5t51 127.5q4 27 0 60z" />
    <glyph glyph-name="ntilde" unicode="&#xf1;" horiz-adv-x="652" 
d="M521 694q-51 -49 -101 -49q-27 0 -77 31q-51 31 -70 31q-41 0 -101 -60l11 122q51 49 102 49q25 0 76 -31q54 -31 70 -31q23 0 45.5 13t55.5 47zM565 415q1 -23 0 -45l-37 -370h-143l34 350q1 15 0 28q-4 36 -28 55.5t-61 19.5q-45 0 -82 -24t-54 -66l-36 -363h-142
l55 555h130l-7 -71q50 83 188 83q77 0 126 -42t57 -110z" />
    <glyph glyph-name="ograve" unicode="&#xf2;" horiz-adv-x="649" 
d="M409 619l-191 118l99 93l145 -121zM580 356q4 -37 0 -79q-13 -132 -97 -210.5t-215 -78.5q-109 0 -176.5 56.5t-78.5 155.5q-4 29 0 77q13 132 98 211t215 79q110 0 176.5 -56.5t77.5 -154.5zM436 333q-7 57 -39 88.5t-83 31.5q-62 0 -105.5 -47.5t-51.5 -128.5
q-2 -31 1 -54q6 -57 38.5 -89.5t82.5 -32.5q64 0 106.5 47t50.5 129q3 30 0 56z" />
    <glyph glyph-name="oacute" unicode="&#xf3;" horiz-adv-x="649" 
d="M241 619l-35 90l167 121l83 -93zM580 356q4 -37 0 -79q-13 -132 -97 -210.5t-215 -78.5q-109 0 -176.5 56.5t-78.5 155.5q-4 29 0 77q13 132 98 211t215 79q110 0 176.5 -56.5t77.5 -154.5zM436 333q-7 57 -39 88.5t-83 31.5q-62 0 -105.5 -47.5t-51.5 -128.5
q-2 -31 1 -54q6 -57 38.5 -89.5t82.5 -32.5q64 0 106.5 47t50.5 129q3 30 0 56z" />
    <glyph glyph-name="ocircumflex" unicode="&#xf4;" horiz-adv-x="649" 
d="M458 616l-121 95l-139 -95l-46 72l135 132h120l112 -132zM580 356q4 -37 0 -79q-13 -132 -97 -210.5t-215 -78.5q-109 0 -176.5 56.5t-78.5 155.5q-4 29 0 77q13 132 98 211t215 79q110 0 176.5 -56.5t77.5 -154.5zM436 333q-7 57 -39 88.5t-83 31.5q-62 0 -105.5 -47.5
t-51.5 -128.5q-2 -31 1 -54q6 -57 38.5 -89.5t82.5 -32.5q64 0 106.5 47t50.5 129q3 30 0 56z" />
    <glyph glyph-name="otilde" unicode="&#xf5;" horiz-adv-x="649" 
d="M512 694q-51 -49 -101 -49q-27 0 -77 31q-51 31 -70 31q-41 0 -101 -60l11 122q51 49 102 49q25 0 76 -31q54 -31 70 -31q23 0 45.5 13t55.5 47zM580 356q4 -37 0 -79q-13 -132 -97 -210.5t-215 -78.5q-109 0 -176.5 56.5t-78.5 155.5q-4 29 0 77q13 132 98 211t215 79
q110 0 176.5 -56.5t77.5 -154.5zM436 333q-7 57 -39 88.5t-83 31.5q-62 0 -105.5 -47.5t-51.5 -128.5q-2 -31 1 -54q6 -57 38.5 -89.5t82.5 -32.5q64 0 106.5 47t50.5 129q3 30 0 56z" />
    <glyph glyph-name="odieresis" unicode="&#xf6;" horiz-adv-x="649" 
d="M293 675h-123l14 135h123zM493 675h-123l14 135h123zM580 356q4 -37 0 -79q-13 -132 -97 -210.5t-215 -78.5q-109 0 -176.5 56.5t-78.5 155.5q-4 29 0 77q13 132 98 211t215 79q110 0 176.5 -56.5t77.5 -154.5zM436 333q-7 57 -39 88.5t-83 31.5q-62 0 -105.5 -47.5
t-51.5 -128.5q-2 -31 1 -54q6 -57 38.5 -89.5t82.5 -32.5q64 0 106.5 47t50.5 129q3 30 0 56z" />
    <glyph glyph-name="divide" unicode="&#xf7;" horiz-adv-x="660" 
d="M418 489q0 -37 -25.5 -62.5t-62.5 -25.5t-62.5 25.5t-25.5 62.5t25.5 62.5t62.5 25.5t62.5 -25.5t25.5 -62.5zM52 238v117h555v-117h-555zM418 91q0 -37 -25.5 -62.5t-62.5 -25.5t-62.5 25.5t-25.5 62.5t25.5 62.5t62.5 25.5t62.5 -25.5t25.5 -62.5z" />
    <glyph glyph-name="oslash" unicode="&#xf8;" horiz-adv-x="649" 
d="M600 516l-55 -55q29 -44 35 -105q4 -37 0 -79q-13 -132 -97 -210.5t-215 -78.5q-93 0 -154 41l-63 -63l-52 55l59 59q-38 52 -45 121q-4 28 0 76q13 132 98 211t215 79q102 0 168 -50l54 54zM398 421q-30 32 -84 32q-62 0 -105.5 -47.5t-51.5 -128.5q-4 -50 8 -90z
M437 329q-2 14 -4 21l-225 -226q31 -23 71 -23q64 0 106.5 47t50.5 129q3 25 1 52z" />
    <glyph glyph-name="ugrave" unicode="&#xf9;" horiz-adv-x="652" 
d="M409 619l-191 118l99 93l145 -121zM526 0h-130l7 70q-25 -40 -74.5 -61t-111.5 -21q-77 0 -126.5 40t-57.5 106q-3 21 0 44l37 377h142l-34 -344q-1 -15 0 -28q4 -36 28.5 -55.5t61.5 -19.5q44 0 81 23.5t54 66.5l36 357h142z" />
    <glyph glyph-name="uacute" unicode="&#xfa;" horiz-adv-x="652" 
d="M241 619l-35 90l167 121l83 -93zM526 0h-130l7 70q-25 -40 -74.5 -61t-111.5 -21q-77 0 -126.5 40t-57.5 106q-3 21 0 44l37 377h142l-34 -344q-1 -15 0 -28q4 -36 28.5 -55.5t61.5 -19.5q44 0 81 23.5t54 66.5l36 357h142z" />
    <glyph glyph-name="ucircumflex" unicode="&#xfb;" horiz-adv-x="652" 
d="M458 616l-121 95l-139 -95l-46 72l135 132h120l112 -132zM526 0h-130l7 70q-25 -40 -74.5 -61t-111.5 -21q-77 0 -126.5 40t-57.5 106q-3 21 0 44l37 377h142l-34 -344q-1 -15 0 -28q4 -36 28.5 -55.5t61.5 -19.5q44 0 81 23.5t54 66.5l36 357h142z" />
    <glyph glyph-name="udieresis" unicode="&#xfc;" horiz-adv-x="652" 
d="M293 675h-123l14 135h123zM493 675h-123l14 135h123zM526 0h-130l7 70q-25 -40 -74.5 -61t-111.5 -21q-77 0 -126.5 40t-57.5 106q-3 21 0 44l37 377h142l-34 -344q-1 -15 0 -28q4 -36 28.5 -55.5t61.5 -19.5q44 0 81 23.5t54 66.5l36 357h142z" />
    <glyph glyph-name="yacute" unicode="&#xfd;" horiz-adv-x="576" 
d="M212 619l-35 90l167 121l83 -93zM309 -29q-41 -95 -110 -134.5t-188 -39.5l-24 119h11q88 0 121 20t65 89l-171 529h142l88 -280q9 -31 15 -77l3 -38h2q11 45 36 114l114 281h148z" />
    <glyph glyph-name="thorn" unicode="&#xfe;" horiz-adv-x="649" 
d="M581 373q4 -38 -1 -95q-14 -140 -87 -215t-183 -75q-99 0 -147 58l-25 -248h-142l97 982h142l-28 -279q21 30 64.5 48t95.5 18q91 0 147 -50t67 -144zM436 341q-6 55 -36 83.5t-80 28.5t-88.5 -36t-43.5 -89l-16 -153q39 -76 115 -76q59 0 100 46t49 133q4 30 0 63z" />
    <glyph glyph-name="ydieresis" unicode="&#xff;" horiz-adv-x="576" 
d="M264 675h-123l14 135h123zM464 675h-123l14 135h123zM309 -29q-41 -95 -110 -134.5t-188 -39.5l-24 119h11q88 0 121 20t65 89l-171 529h142l88 -280q9 -31 15 -77l3 -38h2q11 45 36 114l114 281h148z" />
    <glyph glyph-name="Amacron" unicode="&#x100;" horiz-adv-x="727" 
d="M551 866h-320l10 104h320zM526 0l-50 203h-286l-91 -203h-155l348 780h188l192 -780h-146zM446 328q-58 212 -67 294q0 2 -0.5 6t-0.5 6h-8q-8 -32 -39 -108.5t-59 -137.5l-27 -60h201z" />
    <glyph glyph-name="amacron" unicode="&#x101;" horiz-adv-x="602" 
d="M466 684h-320l10 104h320zM515 -7q-58 -13 -103.5 5t-49.5 61q-57 -71 -205 -71q-83 0 -123 39t-35 110q7 80 59.5 127t153.5 69q141 30 143 68q3 32 -17.5 44t-71.5 12q-40 0 -93.5 -25t-80.5 -60l-48 102q87 93 244 93q117 0 171 -43t44 -133l-23 -237
q-4 -32 16.5 -42.5t57.5 -2.5zM349 288q-27 -24 -112 -46q-48 -12 -72 -32t-26 -59q-2 -27 14.5 -41t50.5 -14q40 0 80.5 21.5t53.5 56.5z" />
    <glyph glyph-name="Emacron" unicode="&#x112;" horiz-adv-x="678" 
d="M551 866h-320l10 104h320zM627 655h-379l-19 -193h329l-12 -122h-329l-20 -215h398l-13 -125h-546l77 780h527z" />
    <glyph glyph-name="emacron" unicode="&#x113;" horiz-adv-x="612" 
d="M485 684h-320l10 104h320zM547 364q4 -42 -2 -95l-407 -51q1 -3 1 -9q6 -51 44.5 -79.5t97.5 -28.5q54 0 103 24.5t79 68.5l62 -86q-52 -61 -114 -90.5t-150 -29.5q-105 0 -171 56t-77 155q-4 29 0 79q13 127 94 208t208 81q99 0 160 -54t72 -149zM419 370
q-4 40 -35.5 63t-80.5 23q-62 0 -104 -35.5t-52 -101.5l273 36q0 3 -0.5 8t-0.5 7z" />
    <glyph glyph-name="Ecaron" unicode="&#x11a;" horiz-adv-x="678" 
d="M456 827h-120l-120 122l60 72l131 -85l149 85l47 -72zM627 655h-379l-19 -193h329l-12 -122h-329l-20 -215h398l-13 -125h-546l77 780h527z" />
    <glyph glyph-name="ecaron" unicode="&#x11b;" horiz-adv-x="612" 
d="M388 622h-120l-109 132l61 72l120 -95l140 95l46 -72zM547 364q4 -42 -2 -95l-407 -51q1 -3 1 -9q6 -51 44.5 -79.5t97.5 -28.5q54 0 103 24.5t79 68.5l62 -86q-52 -61 -114 -90.5t-150 -29.5q-105 0 -171 56t-77 155q-4 29 0 79q13 127 94 208t208 81q99 0 160 -54
t72 -149zM419 370q-4 40 -35.5 63t-80.5 23q-62 0 -104 -35.5t-52 -101.5l273 36q0 3 -0.5 8t-0.5 7z" />
    <glyph glyph-name="Itilde" unicode="&#x128;" horiz-adv-x="342" 
d="M353 875q-49 -49 -100 -49q-26 0 -78 31q-51 31 -68 31q-41 0 -102 -60l12 122q51 49 100 49q25 0 78 -31q52 -31 68 -31q43 0 102 60zM192 0h-152l77 780h152z" />
    <glyph glyph-name="itilde" unicode="&#x129;" horiz-adv-x="290" 
d="M326 694q-51 -49 -101 -49q-27 0 -77 31q-51 31 -70 31q-41 0 -101 -60l11 122q51 49 102 49q25 0 76 -31q54 -31 70 -31q23 0 45.5 13t55.5 47zM162 0h-143l55 555h143z" />
    <glyph glyph-name="Imacron" unicode="&#x12a;" horiz-adv-x="342" 
d="M363 866h-320l10 104h320zM192 0h-152l77 780h152z" />
    <glyph glyph-name="imacron" unicode="&#x12b;" horiz-adv-x="290" 
d="M318 684h-320l10 104h320zM162 0h-143l55 555h143z" />
    <glyph glyph-name="dotlessi" unicode="&#x131;" horiz-adv-x="290" 
d="M162 0h-143l55 555h143z" />
    <glyph glyph-name="Lslash" unicode="&#x141;" horiz-adv-x="621" 
d="M537 0h-501l25 255l-84 -51l12 115l84 51l40 410h150l-31 -313l135 83l-11 -116l-135 -82l-22 -218h351z" />
    <glyph glyph-name="lslash" unicode="&#x142;" horiz-adv-x="342" 
d="M318 417l-90 -57l-36 -360h-152l25 259l-88 -55l12 115l87 55l41 406h152l-30 -304l90 57z" />
    <glyph glyph-name="Omacron" unicode="&#x14c;" horiz-adv-x="806" 
d="M591 866h-320l10 104h320zM734 509q7 -62 0 -117q-17 -184 -123 -297.5t-266 -113.5q-132 0 -213.5 78.5t-96.5 213.5q-7 61 -1 119q18 180 124.5 293.5t267.5 113.5q131 0 212 -78.5t96 -211.5zM583 488q-10 86 -54.5 134.5t-114.5 48.5q-86 0 -151 -76.5t-78 -202.5
q-4 -46 1 -95q10 -88 55.5 -138t116.5 -50q86 0 149.5 77.5t75.5 205.5q5 59 0 96z" />
    <glyph glyph-name="omacron" unicode="&#x14d;" horiz-adv-x="649" 
d="M493 684h-320l10 104h320zM580 356q4 -37 0 -79q-13 -132 -97 -210.5t-215 -78.5q-109 0 -176.5 56.5t-78.5 155.5q-4 29 0 77q13 132 98 211t215 79q110 0 176.5 -56.5t77.5 -154.5zM436 333q-7 57 -39 88.5t-83 31.5q-62 0 -105.5 -47.5t-51.5 -128.5q-2 -31 1 -54
q6 -57 38.5 -89.5t82.5 -32.5q64 0 106.5 47t50.5 129q3 30 0 56z" />
    <glyph glyph-name="OE" unicode="&#x152;" horiz-adv-x="934" 
d="M896 655h-291l-19 -193h246l-12 -122h-246l-20 -215h306l-13 -125h-434l3 31q-66 -50 -147 -50q-103 0 -165 65.5t-76 187.5q-8 73 1 159q18 186 103.5 296t216.5 110q86 0 138 -47l3 28h419zM470 572q-30 95 -125 95q-68 0 -118 -73t-62 -201q-7 -79 0 -126
q8 -76 41 -114.5t85 -38.5q41 0 78.5 24t63.5 66z" />
    <glyph glyph-name="oe" unicode="&#x153;" horiz-adv-x="985" 
d="M910 369q5 -50 -2 -100l-388 -51q1 -4 1 -11q6 -51 41 -78.5t92 -27.5q111 0 173 93l61 -86q-52 -62 -110 -91t-144 -29q-124 0 -186 81q-76 -81 -199 -81q-100 0 -159.5 54.5t-70.5 150.5q-4 36 -1 84q13 133 90.5 211.5t198.5 78.5t182 -81q79 81 199 81
q96 0 153.5 -52.5t68.5 -145.5zM785 372q-5 40 -33 62t-76 22q-60 0 -98.5 -35.5t-48.5 -101.5l257 36q0 3 -0.5 8.5t-0.5 8.5zM402 341q-6 54 -33.5 83t-73.5 29q-57 0 -95.5 -47t-46.5 -129q-3 -34 0 -61q7 -54 34.5 -84.5t72.5 -30.5q58 0 96 46.5t46 129.5q4 29 0 64z
" />
    <glyph glyph-name="Scaron" unicode="&#x160;" horiz-adv-x="698" 
d="M429 827h-120l-120 122l60 72l131 -85l149 85l47 -72zM505 566q-30 110 -146 110q-60 0 -96 -26t-41 -65v-17q6 -47 91 -76l115 -39q160 -56 174 -177q1 -25 0 -53q-11 -115 -92.5 -178.5t-218.5 -63.5q-115 0 -187.5 53.5t-95.5 149.5l119 75q18 -68 67 -109.5
t110 -41.5q65 0 102.5 27t42.5 73q1 8 1 24q-7 59 -104 95l-110 39q-75 28 -112.5 65t-44.5 93q-3 25 0 54q9 94 88 157.5t199 63.5q208 0 256 -155z" />
    <glyph glyph-name="scaron" unicode="&#x161;" horiz-adv-x="558" 
d="M343 622h-120l-109 132l61 72l120 -95l140 95l46 -72zM432 384q-56 80 -163 80q-82 0 -89 -53v-11q2 -18 24.5 -30t77.5 -24q95 -20 143 -57t55 -95q2 -25 0 -39q-8 -81 -73.5 -124t-182.5 -43q-76 0 -139 28t-96 79l71 100q28 -43 80 -70.5t100 -27.5q87 0 94 57
q1 5 1 14q-3 24 -30.5 39.5t-90.5 29.5q-164 34 -175 136q-3 16 0 34q6 71 70.5 115.5t171.5 44.5q75 0 132.5 -23.5t84.5 -63.5z" />
    <glyph glyph-name="Utilde" unicode="&#x168;" horiz-adv-x="792" 
d="M593 875q-49 -49 -100 -49q-26 0 -78 31q-51 31 -68 31q-41 0 -102 -60l12 122q51 49 100 49q25 0 78 -31q52 -31 68 -31q43 0 102 60zM672 262q-13 -127 -106 -204t-227 -77q-117 0 -191.5 57.5t-85.5 156.5q-4 25 0 67l51 518h150l-50 -505q-3 -26 -1 -51
q7 -58 43.5 -87.5t96.5 -29.5q73 0 120 43t55 125l50 505h146z" />
    <glyph glyph-name="utilde" unicode="&#x169;" horiz-adv-x="652" 
d="M511 694q-51 -49 -101 -49q-27 0 -77 31q-51 31 -70 31q-41 0 -101 -60l11 122q51 49 102 49q25 0 76 -31q54 -31 70 -31q23 0 45.5 13t55.5 47zM526 0h-130l7 70q-25 -40 -74.5 -61t-111.5 -21q-77 0 -126.5 40t-57.5 106q-3 21 0 44l37 377h142l-34 -344q-1 -15 0 -28
q4 -36 28.5 -55.5t61.5 -19.5q44 0 81 23.5t54 66.5l36 357h142z" />
    <glyph glyph-name="Umacron" unicode="&#x16a;" horiz-adv-x="792" 
d="M589 866h-320l10 104h320zM672 262q-13 -127 -106 -204t-227 -77q-117 0 -191.5 57.5t-85.5 156.5q-4 25 0 67l51 518h150l-50 -505q-3 -26 -1 -51q7 -58 43.5 -87.5t96.5 -29.5q73 0 120 43t55 125l50 505h146z" />
    <glyph glyph-name="umacron" unicode="&#x16b;" horiz-adv-x="652" 
d="M493 684h-320l10 104h320zM526 0h-130l7 70q-25 -40 -74.5 -61t-111.5 -21q-77 0 -126.5 40t-57.5 106q-3 21 0 44l37 377h142l-34 -344q-1 -15 0 -28q4 -36 28.5 -55.5t61.5 -19.5q44 0 81 23.5t54 66.5l36 357h142z" />
    <glyph glyph-name="Uring" unicode="&#x16e;" horiz-adv-x="792" 
d="M544 950q1 -12 0 -25q-6 -51 -45 -86.5t-89 -35.5q-43 0 -74 27.5t-36 68.5q-2 12 0 26q4 50 44 86t90 36q43 0 74 -27.5t36 -69.5zM475 936q-2 19 -16 31.5t-33 12.5q-22 0 -39 -16t-19 -39v-12q2 -18 15.5 -29.5t32.5 -11.5q22 0 39.5 15t20.5 38q0 7 -1 11zM672 262
q-13 -127 -106 -204t-227 -77q-117 0 -191.5 57.5t-85.5 156.5q-4 25 0 67l51 518h150l-50 -505q-3 -26 -1 -51q7 -58 43.5 -87.5t96.5 -29.5q73 0 120 43t55 125l50 505h146z" />
    <glyph glyph-name="uring" unicode="&#x16f;" horiz-adv-x="652" 
d="M452 743q1 -12 0 -25q-5 -50 -44.5 -86t-89.5 -36q-43 0 -74 27.5t-36 68.5q-2 12 0 26q5 50 44.5 86t89.5 36q43 0 74 -27.5t36 -69.5zM384 729q-2 19 -16 31.5t-33 12.5q-22 0 -39.5 -16t-19.5 -39q0 -8 1 -12q2 -18 15 -29.5t32 -11.5q23 0 40.5 15.5t19.5 37.5v11z
M526 0h-130l7 70q-25 -40 -74.5 -61t-111.5 -21q-77 0 -126.5 40t-57.5 106q-3 21 0 44l37 377h142l-34 -344q-1 -15 0 -28q4 -36 28.5 -55.5t61.5 -19.5q44 0 81 23.5t54 66.5l36 357h142z" />
    <glyph glyph-name="Ydieresis" unicode="&#x178;" horiz-adv-x="632" 
d="M308 840h-123l13 135h123zM508 840h-123l13 135h123zM364 272l-27 -272h-151l27 272l-202 508h144l139 -365l213 365h158z" />
    <glyph glyph-name="Zcaron" unicode="&#x17d;" horiz-adv-x="683" 
d="M445 827h-120l-120 122l60 72l131 -85l149 85l47 -72zM638 669l-448 -544h395l-13 -125h-568l12 120l444 535h-365l13 125h541z" />
    <glyph glyph-name="zcaron" unicode="&#x17e;" horiz-adv-x="546" 
d="M346 622h-120l-109 132l61 72l120 -95l140 95l46 -72zM490 461l-317 -344h297l-12 -117h-478l10 92l319 346h-264l12 117h443z" />
    <glyph glyph-name="florin" unicode="&#x192;" horiz-adv-x="555" 
d="M548 634q-38 30 -75 30q-14 0 -29 -6q-20 -10 -33 -34t-30 -80q-6 -18 -20 -69h98l-10 -97h-113q-57 -245 -84 -331q-52 -163 -146 -215q-39 -21 -88 -21q-43 0 -81 16l20 97q45 -31 75 -31q15 0 28 7q34 18 64 113q7 23 93 365h-110l10 97h125q1 2 5 15.5t6 20.5
q46 160 144 215q40 21 90 21q42 0 80 -16z" />
    <glyph glyph-name="uni01CD" unicode="&#x1cd;" horiz-adv-x="727" 
d="M445 827h-120l-120 122l60 72l131 -85l149 85l47 -72zM526 0l-50 203h-286l-91 -203h-155l348 780h188l192 -780h-146zM446 328q-58 212 -67 294q0 2 -0.5 6t-0.5 6h-8q-8 -32 -39 -108.5t-59 -137.5l-27 -60h201z" />
    <glyph glyph-name="uni01CE" unicode="&#x1ce;" horiz-adv-x="602" 
d="M376 622h-120l-109 132l61 72l120 -95l140 95l46 -72zM515 -7q-58 -13 -103.5 5t-49.5 61q-57 -71 -205 -71q-83 0 -123 39t-35 110q7 80 59.5 127t153.5 69q141 30 143 68q3 32 -17.5 44t-71.5 12q-40 0 -93.5 -25t-80.5 -60l-48 102q87 93 244 93q117 0 171 -43
t44 -133l-23 -237q-4 -32 16.5 -42.5t57.5 -2.5zM349 288q-27 -24 -112 -46q-48 -12 -72 -32t-26 -59q-2 -27 14.5 -41t50.5 -14q40 0 80.5 21.5t53.5 56.5z" />
    <glyph glyph-name="uni01CF" unicode="&#x1cf;" horiz-adv-x="342" 
d="M247 827h-120l-120 122l60 72l131 -85l149 85l47 -72zM192 0h-152l77 780h152z" />
    <glyph glyph-name="uni01D0" unicode="&#x1d0;" horiz-adv-x="290" 
d="M207 622h-120l-109 132l61 72l120 -95l140 95l46 -72zM162 0h-143l55 555h143z" />
    <glyph glyph-name="uni01D1" unicode="&#x1d1;" horiz-adv-x="806" 
d="M495 827h-120l-120 122l60 72l131 -85l149 85l47 -72zM734 509q7 -62 0 -117q-17 -184 -123 -297.5t-266 -113.5q-132 0 -213.5 78.5t-96.5 213.5q-7 61 -1 119q18 180 124.5 293.5t267.5 113.5q131 0 212 -78.5t96 -211.5zM583 488q-10 86 -54.5 134.5t-114.5 48.5
q-86 0 -151 -76.5t-78 -202.5q-4 -46 1 -95q10 -88 55.5 -138t116.5 -50q86 0 149.5 77.5t75.5 205.5q5 59 0 96z" />
    <glyph glyph-name="uni01D2" unicode="&#x1d2;" horiz-adv-x="649" 
d="M406 622h-120l-109 132l61 72l120 -95l140 95l46 -72zM580 356q4 -37 0 -79q-13 -132 -97 -210.5t-215 -78.5q-109 0 -176.5 56.5t-78.5 155.5q-4 29 0 77q13 132 98 211t215 79q110 0 176.5 -56.5t77.5 -154.5zM436 333q-7 57 -39 88.5t-83 31.5q-62 0 -105.5 -47.5
t-51.5 -128.5q-2 -31 1 -54q6 -57 38.5 -89.5t82.5 -32.5q64 0 106.5 47t50.5 129q3 30 0 56z" />
    <glyph glyph-name="uni01D3" unicode="&#x1d3;" horiz-adv-x="792" 
d="M484 827h-120l-120 122l60 72l131 -85l149 85l47 -72zM672 262q-13 -127 -106 -204t-227 -77q-117 0 -191.5 57.5t-85.5 156.5q-4 25 0 67l51 518h150l-50 -505q-3 -26 -1 -51q7 -58 43.5 -87.5t96.5 -29.5q73 0 120 43t55 125l50 505h146z" />
    <glyph glyph-name="uni01D4" unicode="&#x1d4;" horiz-adv-x="652" 
d="M393 622h-120l-109 132l61 72l120 -95l140 95l46 -72zM526 0h-130l7 70q-25 -40 -74.5 -61t-111.5 -21q-77 0 -126.5 40t-57.5 106q-3 21 0 44l37 377h142l-34 -344q-1 -15 0 -28q4 -36 28.5 -55.5t61.5 -19.5q44 0 81 23.5t54 66.5l36 357h142z" />
    <glyph glyph-name="circumflex" unicode="&#x2c6;" horiz-adv-x="500" 
d="M389 616l-121 95l-139 -95l-46 72l135 132h120l112 -132z" />
    <glyph glyph-name="caron" unicode="&#x2c7;" horiz-adv-x="500" 
d="M318 622h-120l-109 132l61 72l120 -95l140 95l46 -72z" />
    <glyph glyph-name="dotaccent" unicode="&#x2d9;" horiz-adv-x="500" 
d="M321 675h-123l14 135h123z" />
    <glyph glyph-name="ring" unicode="&#x2da;" horiz-adv-x="500" 
d="M391 743q1 -12 0 -25q-5 -50 -44.5 -86t-89.5 -36q-43 0 -74 27.5t-36 68.5q-2 12 0 26q5 50 44.5 86t89.5 36q43 0 74 -27.5t36 -69.5zM323 729q-2 19 -16 31.5t-33 12.5q-22 0 -39.5 -16t-19.5 -39q0 -8 1 -12q2 -18 15 -29.5t32 -11.5q23 0 40.5 15.5t19.5 37.5v11z
" />
    <glyph glyph-name="ogonek" unicode="&#x2db;" horiz-adv-x="500" 
d="M294 -157q-46 -23 -98 -23q-58 0 -93 20.5t-39 58.5q-2 14 -1 21q6 55 46 100h108q-44 -52 -45 -78q-1 -5 -1 -14q3 -21 42 -21q42 0 89 29z" />
    <glyph glyph-name="tilde" unicode="&#x2dc;" horiz-adv-x="500" 
d="M437 694q-51 -49 -101 -49q-27 0 -77 31q-51 31 -70 31q-41 0 -101 -60l11 122q51 49 102 49q25 0 76 -31q54 -31 70 -31q23 0 45.5 13t55.5 47z" />
    <glyph glyph-name="hungarumlaut" unicode="&#x2dd;" horiz-adv-x="500" 
d="M114 617l-44 77l130 136l81 -86zM295 618l-44 76l130 136l81 -86z" />
    <glyph glyph-name="acutecomb" unicode="&#x301;" horiz-adv-x="0" 
d="M-320 619l-35 90l167 121l83 -93z" />
    <glyph glyph-name="uni0306" unicode="&#x306;" horiz-adv-x="0" 
d="M-41 770q-26 -56 -77.5 -87.5t-120.5 -31.5t-114 31.5t-60 87.5l87 53q9 -31 34 -50.5t63 -19.5t68 19.5t43 50.5z" />
    <glyph glyph-name="uni0308" unicode="&#x308;" horiz-adv-x="0" 
d="M-277 675h-123l14 135h123zM-77 675h-123l14 135h123z" />
    <glyph glyph-name="uni03A9" unicode="&#x3a9;" horiz-adv-x="806" 
d="M736 526q6 -50 1 -110q-10 -99 -58 -179t-96 -106h130l-12 -131h-307l12 123q73 18 123.5 99t60.5 181q6 53 1 100q-10 83 -54.5 128t-120.5 45q-92 0 -154.5 -73t-75.5 -200q-4 -40 1 -87q9 -73 41 -125.5t85 -67.5l-12 -123h-304l12 131h129q-32 21 -60 76.5t-36 124.5
q-4 40 0 84q8 78 35.5 146t74 122t118 85.5t159.5 31.5q141 0 217 -76t90 -199z" />
    <glyph glyph-name="uni03BC" unicode="&#x3bc;" horiz-adv-x="652" 
d="M526 0h-130l7 70q-25 -40 -74.5 -61t-111.5 -21q-31 0 -61 8l-16 -176h-142l72 735h142l-34 -344q-1 -15 0 -28q4 -36 28.5 -55.5t61.5 -19.5q44 0 81 23.5t54 66.5l36 357h142z" />
    <glyph glyph-name="uni1EBC" unicode="&#x1ebc;" horiz-adv-x="678" 
d="M563 875q-49 -49 -100 -49q-26 0 -78 31q-51 31 -68 31q-41 0 -102 -60l12 122q51 49 100 49q25 0 78 -31q52 -31 68 -31q43 0 102 60zM627 655h-379l-19 -193h329l-12 -122h-329l-20 -215h398l-13 -125h-546l77 780h527z" />
    <glyph glyph-name="uni1EBD" unicode="&#x1ebd;" horiz-adv-x="612" 
d="M501 694q-51 -49 -101 -49q-27 0 -77 31q-51 31 -70 31q-41 0 -101 -60l11 122q51 49 102 49q25 0 76 -31q54 -31 70 -31q23 0 45.5 13t55.5 47zM547 364q4 -42 -2 -95l-407 -51q1 -3 1 -9q6 -51 44.5 -79.5t97.5 -28.5q54 0 103 24.5t79 68.5l62 -86q-52 -61 -114 -90.5
t-150 -29.5q-105 0 -171 56t-77 155q-4 29 0 79q13 127 94 208t208 81q99 0 160 -54t72 -149zM419 370q-4 40 -35.5 63t-80.5 23q-62 0 -104 -35.5t-52 -101.5l273 36q0 3 -0.5 8t-0.5 7z" />
    <glyph glyph-name="endash" unicode="&#x2013;" horiz-adv-x="500" 
d="M467 219h-500l7 84h500z" />
    <glyph glyph-name="emdash" unicode="&#x2014;" horiz-adv-x="1000" 
d="M942 223h-1000l-1 76h1000z" />
    <glyph glyph-name="quoteleft" unicode="&#x2018;" horiz-adv-x="345" 
d="M294 770q-58 -29 -65 -103h66l-16 -165h-158l16 164q10 111 104 162z" />
    <glyph glyph-name="quoteright" unicode="&#x2019;" horiz-adv-x="345" 
d="M229 649q-10 -110 -103 -162l-54 58q58 29 65 103h-66l16 165h158z" />
    <glyph glyph-name="quotesinglbase" unicode="&#x201a;" horiz-adv-x="345" 
d="M165 1q-10 -111 -104 -162l-53 58q58 29 65 103h-66l16 165h158z" />
    <glyph glyph-name="quotedblleft" unicode="&#x201c;" horiz-adv-x="400" 
d="M182 771q-58 -29 -65 -104h58l-16 -165h-138l16 164q11 110 107 162zM392 771q-58 -29 -65 -104h58l-16 -165h-138l16 164q11 110 107 162z" />
    <glyph glyph-name="quotedblright" unicode="&#x201d;" horiz-adv-x="400" 
d="M173 649q-11 -108 -106 -162l-39 57q58 30 65 104h-58l16 165h138zM383 649q-11 -108 -106 -162l-39 57q58 30 65 104h-58l16 165h138z" />
    <glyph glyph-name="quotedblbase" unicode="&#x201e;" horiz-adv-x="400" 
d="M109 1q-11 -110 -107 -162l-38 57q58 29 65 104h-58l16 165h138zM319 1q-11 -110 -107 -162l-38 57q58 29 65 104h-58l16 165h138z" />
    <glyph glyph-name="dagger" unicode="&#x2020;" horiz-adv-x="573" 
d="M520 493h-175l-56 -568h-131l56 568h-174l12 130h174l20 202h131l-20 -202h175z" />
    <glyph glyph-name="daggerdbl" unicode="&#x2021;" horiz-adv-x="573" 
d="M522 517h-175l-28 -284h175l-13 -131h-175l-17 -177h-131l17 177h-174l13 131h174l28 284h-174l13 131h174l17 177h131l-17 -177h175z" />
    <glyph glyph-name="bullet" unicode="&#x2022;" horiz-adv-x="392" 
d="M282 306q6 -49 -25.5 -85t-81.5 -36q-49 0 -89 35.5t-46 85.5q-5 50 26.5 85.5t80.5 35.5q50 0 90 -36t45 -85z" />
    <glyph glyph-name="ellipsis" unicode="&#x2026;" horiz-adv-x="1000" 
d="M205 103q1 -9 0 -18q-3 -34 -31 -59.5t-63 -25.5q-30 0 -52 19.5t-26 48.5v17q4 36 32 61.5t63 25.5q30 0 52 -19.5t25 -49.5zM539 103q1 -9 0 -18q-3 -35 -31 -60t-63 -25q-30 0 -52 19.5t-26 48.5v17q4 36 32 61.5t63 25.5q30 0 52 -19.5t25 -49.5zM873 103q1 -9 0 -18
q-3 -35 -31 -60t-63 -25q-30 0 -52 19.5t-26 48.5v17q4 36 32 61.5t63 25.5q30 0 52 -19.5t25 -49.5z" />
    <glyph glyph-name="perthousand" unicode="&#x2030;" horiz-adv-x="1000" 
d="M343 671q3 -36 -1 -68q-7 -80 -52 -138.5t-111 -58.5q-55 0 -85.5 34.5t-36.5 92.5q-3 33 0 70q9 87 49.5 142.5t111.5 55.5q56 0 87 -36t38 -94zM68 0h-84l594 780h85zM249 667q-5 48 -39 48q-51 0 -61 -112q-3 -42 -1 -60q6 -50 40 -50q51 0 60 110q4 38 1 64zM587 249
q3 -35 0 -73q-8 -86 -47 -141t-111 -55q-55 0 -85 35t-36 93q-4 30 -1 68q8 81 52 139.5t108 58.5q55 0 84.5 -34t35.5 -91zM911 244q4 -26 0 -68q-8 -85 -49 -140.5t-113 -55.5q-104 0 -118 125q-3 33 0 71q8 82 50.5 140t105.5 58q56 0 87 -35.5t37 -94.5zM499 240
q-5 48 -40 48q-25 0 -40 -25t-21 -87q-3 -41 -1 -60q5 -49 40 -49q25 0 39.5 24.5t20.5 84.5q4 35 2 64zM819 241q-5 47 -40 47q-24 0 -39 -25t-21 -87q-3 -43 -1 -61q5 -48 39 -48q25 0 39.5 24.5t20.5 84.5q4 35 2 65z" />
    <glyph glyph-name="minute" unicode="&#x2032;" horiz-adv-x="332" 
d="M131 522h-117l15 299h151z" />
    <glyph glyph-name="second" unicode="&#x2033;" horiz-adv-x="468" 
d="M82 523h-100l16 298h134zM294 523h-100l16 298h135z" />
    <glyph glyph-name="guilsinglleft" unicode="&#x2039;" horiz-adv-x="640" 
d="M503 409l-292 -152l262 -152l-14 -143l-383 230l12 130l429 230z" />
    <glyph glyph-name="guilsinglright" unicode="&#x203a;" horiz-adv-x="640" 
d="M492 192l-429 -230l14 143l294 152l-264 152l14 143l383 -230z" />
    <glyph glyph-name="uni203E" unicode="&#x203e;" horiz-adv-x="500" 
d="M522 787h-500l9 84h500z" />
    <glyph glyph-name="fraction" unicode="&#x2044;" horiz-adv-x="262" 
d="M-97 -23h-107l529 826h107z" />
    <glyph glyph-name="uni2070" unicode="&#x2070;" horiz-adv-x="360" 
d="M346 657q4 -34 -1 -82q-9 -100 -57 -160.5t-129 -60.5q-126 0 -141 131q-5 40 0 90q11 98 56.5 158.5t128.5 60.5q128 0 143 -137zM248 623q-4 35 -19 54.5t-36 19.5q-28 0 -49.5 -32.5t-28.5 -89.5q-2 -35 0 -51q4 -34 18.5 -54t35.5 -20q29 0 51.5 35t27.5 90
q3 27 0 48z" />
    <glyph glyph-name="uni2074" unicode="&#x2074;" horiz-adv-x="360" 
d="M345 421h-59l-6 -59h-100l6 59h-191l8 87l220 274h99l-27 -269h59zM119 513h76l11 112z" />
    <glyph glyph-name="uni2075" unicode="&#x2075;" horiz-adv-x="360" 
d="M335 694h-180l-14 -61q26 21 69 21q57 0 93.5 -30t42.5 -81q3 -17 0 -36q-5 -64 -54.5 -108.5t-123.5 -44.5q-57 0 -92 21t-64 57l83 57q27 -43 80 -43q25 0 44.5 17t21.5 44q1 5 1 14q-3 21 -18 33t-36 12q-42 0 -67 -30l-84 24l43 224h264z" />
    <glyph glyph-name="uni2076" unicode="&#x2076;" horiz-adv-x="360" 
d="M282 657q-29 45 -79 45q-29 0 -52 -30.5t-29 -69.5q36 33 91 33q51 0 86 -26t40 -75q2 -21 0 -34q-7 -69 -49 -107.5t-117 -38.5q-62 0 -105 36.5t-50 104.5q-3 23 -1 56q12 115 63.5 179t130.5 64q107 0 147 -82zM234 516q-3 38 -50 38q-43 0 -66 -41v-3v-4v-3
q3 -26 18.5 -41.5t39.5 -15.5q26 0 41 16t18 41q0 9 -1 13z" />
    <glyph glyph-name="uni2077" unicode="&#x2077;" horiz-adv-x="360" 
d="M314 697q-98 -78 -141 -232q-14 -49 -19 -103h-112q9 88 47 176.5t87 147.5h-167l9 96h304z" />
    <glyph glyph-name="uni2078" unicode="&#x2078;" horiz-adv-x="360" 
d="M349 699q2 -14 1 -21q-4 -31 -21 -55t-40 -32q50 -16 57 -73q2 -14 0 -30q-6 -63 -52.5 -98.5t-123.5 -35.5q-67 0 -108 29.5t-47 77.5q-1 13 0 27q10 82 79 103q-37 13 -44 63q0 16 1 24q5 54 45 85t111 31q62 0 99.5 -26.5t42.5 -68.5zM245 676q-3 28 -43 28
q-45 0 -48 -36v-9q1 -14 13.5 -23.5t27.5 -9.5q17 0 32.5 12t17.5 30v8zM241 501q-4 34 -56 34q-59 0 -63 -45v-9q5 -35 55 -35q26 0 44 12t20 32v11z" />
    <glyph glyph-name="uni2079" unicode="&#x2079;" horiz-adv-x="360" 
d="M351 653q3 -26 0 -56q-11 -115 -62.5 -179t-130.5 -64q-106 0 -148 82l76 55q29 -45 79 -45q29 0 52 30.5t29 69.5q-36 -33 -90 -33q-51 0 -86 26t-41 75q-2 15 0 34q7 69 49.5 107.5t117.5 38.5q62 0 104.5 -36.5t50.5 -104.5zM251 645q-3 26 -19 41.5t-40 15.5
q-26 0 -41 -16t-17 -41v-13q5 -38 50 -38q42 0 67 41v3v4v3z" />
    <glyph glyph-name="uni2080" unicode="&#x2080;" horiz-adv-x="360" 
d="M320 294q3 -41 -1 -82q-10 -100 -58.5 -160.5t-128.5 -60.5q-126 0 -141 131q-4 35 1 90q10 97 55.5 158t128.5 61q127 0 144 -137zM221 260q-4 35 -19 54.5t-36 19.5q-29 0 -50 -32.5t-27 -89.5q-3 -27 0 -51q4 -34 18 -54t35 -20q29 0 51.5 35t28.5 90q3 23 -1 48z" />
    <glyph glyph-name="uni2081" unicode="&#x2081;" horiz-adv-x="360" 
d="M202 0h-105l26 277l-80 -25l-14 88q96 30 122 80h92z" />
    <glyph glyph-name="uni2082" unicode="&#x2082;" horiz-adv-x="360" 
d="M332 332q2 -13 0 -27q-5 -47 -37.5 -82t-100.5 -65q-66 -28 -82 -62h201l-9 -96h-315l6 68q17 99 148 160q81 40 84 71v8q-3 32 -48 32q-52 0 -64 -76l-95 20q8 68 56 108t114 40q64 0 100.5 -27t41.5 -72z" />
    <glyph glyph-name="uni2083" unicode="&#x2083;" horiz-adv-x="360" 
d="M320 340q1 -12 0 -25q-3 -31 -20 -55t-40 -32q51 -16 58 -75v-28q-6 -62 -51.5 -98t-124.5 -36q-64 0 -104 32t-49 87l98 39v-2q4 -29 22.5 -46.5t41.5 -17.5q56 0 61 44q0 8 -1 11q-3 34 -58 34h-54l9 91h47q25 0 41.5 12t18.5 30q2 5 0 8q-3 28 -39 28q-46 0 -59 -54
l-93 28q39 116 164 116q58 0 92.5 -24.5t39.5 -66.5z" />
    <glyph glyph-name="uni2084" unicode="&#x2084;" horiz-adv-x="360" 
d="M339 59h-59l-6 -59h-100l6 59h-191l8 87l220 274h99l-27 -269h59zM113 151h76l11 112z" />
    <glyph glyph-name="uni2085" unicode="&#x2085;" horiz-adv-x="360" 
d="M309 331h-180l-14 -61q26 21 70 21q57 0 93.5 -30.5t41.5 -80.5q3 -15 1 -36q-6 -64 -55.5 -108.5t-123.5 -44.5q-57 0 -92 21t-64 57l84 57q25 -43 80 -43q25 0 44 16.5t22 44.5v14q-2 20 -17.5 32.5t-36.5 12.5q-42 0 -67 -30l-83 24l42 224h264z" />
    <glyph glyph-name="uni2086" unicode="&#x2086;" horiz-adv-x="360" 
d="M248 294q-31 45 -80 45q-29 0 -51.5 -30.5t-28.5 -69.5q36 33 90 33q51 0 86 -26t41 -75q2 -17 -1 -34q-6 -69 -48.5 -107.5t-117.5 -38.5q-62 0 -104.5 36.5t-50.5 104.5q-3 26 0 56q11 115 62.5 179t130.5 64q107 0 147 -82zM200 153q-5 38 -51 38q-41 0 -66 -41v-10
q3 -26 19 -41.5t40 -15.5q26 0 41 16t17 41v13z" />
    <glyph glyph-name="uni2087" unicode="&#x2087;" horiz-adv-x="360" 
d="M287 335q-98 -78 -141 -232q-14 -49 -19 -103h-112q9 87 47 175.5t87 148.5h-167l9 96h304z" />
    <glyph glyph-name="uni2088" unicode="&#x2088;" horiz-adv-x="360" 
d="M322 336q2 -10 0 -21q-3 -30 -20.5 -54.5t-40.5 -32.5q51 -17 57 -73q2 -18 1 -30q-7 -63 -53.5 -98.5t-123.5 -35.5q-67 0 -108 29.5t-46 77.5q-2 14 0 27q4 42 26 68t52 35q-17 6 -29 23t-14 40q-1 12 0 24q5 54 45 85t111 31q62 0 100 -26.5t43 -68.5zM217 313
q-3 28 -43 28q-43 0 -48 -36v-9q2 -15 14 -24t27 -9q17 0 32.5 12t17.5 30q2 5 0 8zM213 138q-3 34 -56 34q-59 0 -62 -45q-1 -5 0 -9q1 -16 16 -25.5t39 -9.5q26 0 44 12t20 32q0 7 -1 11z" />
    <glyph glyph-name="uni2089" unicode="&#x2089;" horiz-adv-x="360" 
d="M329 290q3 -26 0 -56q-11 -115 -62.5 -179t-130.5 -64q-107 0 -147 82l75 55q31 -45 80 -45q29 0 51.5 30.5t28.5 69.5q-36 -33 -90 -33q-51 0 -86 26t-41 75q-2 17 1 34q6 69 48.5 107.5t117.5 38.5q62 0 104.5 -36.5t50.5 -104.5zM229 282q-3 26 -19 41.5t-40 15.5
q-26 0 -41 -16t-17 -41v-13q5 -38 51 -38q41 0 66 41v10z" />
    <glyph glyph-name="Euro" unicode="&#x20ac;" horiz-adv-x="729" 
d="M603 560q-17 47 -63 77.5t-102 30.5q-66 0 -122 -39t-89 -109h310l-9 -92h-329q-3 -11 -5 -35q0 -5 -1 -15t-1 -15h275l-9 -92h-259q17 -77 66.5 -117t118.5 -40q57 0 112.5 31.5t83.5 81.5l82 -92q-45 -71 -124.5 -112.5t-178.5 -41.5q-136 0 -222 77t-102 213h-41l9 92
h30q1 5 1 15t1 15q2 24 4 35h-32l9 92h46q44 129 145 204t232 75q101 0 171 -42t96 -110z" />
    <glyph glyph-name="trademark" unicode="&#x2122;" horiz-adv-x="810" 
d="M239 677v-308h-109v308h-106v103h318v-103h-103zM664 369v154q0 26 1 39h-2l-49 -193h-99l-50 193h-2q2 -16 2 -40v-153h-104v411h117l79 -243q7 -18 8 -36h3q4 21 9 37l74 242h118v-411h-105z" />
    <glyph glyph-name="uni2153" unicode="&#x2153;" horiz-adv-x="741" 
d="M113 -23h-107l529 826h107zM194 360h-105l26 277l-80 -25l-14 88q96 30 122 80h92zM680 340q1 -12 0 -25q-3 -31 -20 -55t-40 -32q51 -16 58 -75v-28q-6 -62 -51.5 -98t-124.5 -36q-64 0 -104 32t-49 87l98 39v-2q4 -29 22.5 -46.5t41.5 -17.5q56 0 61 44q0 8 -1 11
q-3 34 -58 34h-54l9 91h47q25 0 41.5 12t18.5 30q2 5 0 8q-3 28 -39 28q-46 0 -59 -54l-93 28q39 116 164 116q58 0 92.5 -24.5t39.5 -66.5z" />
    <glyph glyph-name="uni2154" unicode="&#x2154;" horiz-adv-x="741" 
d="M135 -23h-107l245 383h-294l6 68q17 99 148 160q81 40 84 71v8q-3 32 -48 32q-52 0 -64 -76l-95 20q8 68 56 108t114 40q64 0 100.5 -27t41.5 -72q2 -13 0 -27q-5 -47 -37.5 -82t-100.5 -65q-66 -28 -82 -62h191l-7 -76l271 423h107zM684 340q1 -12 0 -25q-3 -31 -20 -55
t-40 -32q51 -16 58 -75v-28q-6 -62 -51.5 -98t-124.5 -36q-64 0 -104 32t-49 87l98 39v-2q4 -29 22.5 -46.5t41.5 -17.5q56 0 61 44q0 8 -1 11q-3 34 -58 34h-54l9 91h47q25 0 41.5 12t18.5 30q2 5 0 8q-3 28 -39 28q-46 0 -59 -54l-93 28q39 116 164 116q58 0 92.5 -24.5
t39.5 -66.5z" />
    <glyph glyph-name="oneeighth" unicode="&#x215b;" horiz-adv-x="741" 
d="M113 -23h-107l529 826h107zM194 360h-105l26 277l-80 -25l-14 88q96 30 122 80h92zM684 336q2 -10 0 -21q-3 -30 -20.5 -54.5t-40.5 -32.5q51 -17 57 -73q2 -18 1 -30q-7 -63 -53.5 -98.5t-123.5 -35.5q-67 0 -108 29.5t-46 77.5q-2 14 0 27q4 42 26 68t52 35
q-17 6 -29 23t-14 40q-1 12 0 24q5 54 45 85t111 31q62 0 100 -26.5t43 -68.5zM579 313q-3 28 -43 28q-43 0 -48 -36v-9q2 -15 14 -24t27 -9q17 0 32.5 12t17.5 30q2 5 0 8zM575 138q-3 34 -56 34q-59 0 -62 -45q-1 -5 0 -9q1 -16 16 -25.5t39 -9.5q26 0 44 12t20 32
q0 7 -1 11z" />
    <glyph glyph-name="threeeighths" unicode="&#x215c;" horiz-adv-x="741" 
d="M123 -23h-107l529 826h107zM296 703q1 -12 0 -25q-3 -31 -20 -55t-40 -32q50 -16 57 -75q2 -12 0 -28q-5 -62 -50.5 -98t-124.5 -36q-64 0 -104.5 32.5t-48.5 86.5l98 39v-2q3 -29 21.5 -46.5t41.5 -17.5q56 0 61 44v11q-4 34 -58 34h-54l9 91h47q25 0 41.5 12t18.5 30v8
q-3 28 -39 28q-46 0 -59 -54l-93 28q39 116 164 116q58 0 92.5 -24.5t39.5 -66.5zM684 336q2 -10 0 -21q-3 -30 -20.5 -54.5t-40.5 -32.5q51 -17 57 -73q2 -18 1 -30q-7 -63 -53.5 -98.5t-123.5 -35.5q-67 0 -108 29.5t-46 77.5q-2 14 0 27q4 42 26 68t52 35q-17 6 -29 23
t-14 40q-1 12 0 24q5 54 45 85t111 31q62 0 100 -26.5t43 -68.5zM579 313q-3 28 -43 28q-43 0 -48 -36v-9q2 -15 14 -24t27 -9q17 0 32.5 12t17.5 30q2 5 0 8zM575 138q-3 34 -56 34q-59 0 -62 -45q-1 -5 0 -9q1 -16 16 -25.5t39 -9.5q26 0 44 12t20 32q0 7 -1 11z" />
    <glyph glyph-name="fiveeighths" unicode="&#x215d;" horiz-adv-x="741" 
d="M123 -23h-107l529 826h107zM285 694h-180l-14 -61q26 21 69 21q57 0 93.5 -30t42.5 -81q3 -17 0 -36q-5 -64 -54.5 -108.5t-123.5 -44.5q-57 0 -92 21t-64 57l83 57q27 -43 80 -43q25 0 44.5 17t21.5 44q1 5 1 14q-3 21 -18 33t-36 12q-42 0 -67 -30l-84 24l43 224h264z
M684 336q2 -10 0 -21q-3 -30 -20.5 -54.5t-40.5 -32.5q51 -17 57 -73q2 -18 1 -30q-7 -63 -53.5 -98.5t-123.5 -35.5q-67 0 -108 29.5t-46 77.5q-2 14 0 27q4 42 26 68t52 35q-17 6 -29 23t-14 40q-1 12 0 24q5 54 45 85t111 31q62 0 100 -26.5t43 -68.5zM579 313
q-3 28 -43 28q-43 0 -48 -36v-9q2 -15 14 -24t27 -9q17 0 32.5 12t17.5 30q2 5 0 8zM575 138q-3 34 -56 34q-59 0 -62 -45q-1 -5 0 -9q1 -16 16 -25.5t39 -9.5q26 0 44 12t20 32q0 7 -1 11z" />
    <glyph glyph-name="seveneighths" unicode="&#x215e;" horiz-adv-x="741" 
d="M113 -23h-107l529 826h107zM310 695q-98 -78 -141 -232q-14 -49 -19 -103h-112q9 88 47 176.5t87 147.5h-167l9 96h304zM684 336q2 -10 0 -21q-3 -30 -20.5 -54.5t-40.5 -32.5q51 -17 57 -73q2 -18 1 -30q-7 -63 -53.5 -98.5t-123.5 -35.5q-67 0 -108 29.5t-46 77.5
q-2 14 0 27q4 42 26 68t52 35q-17 6 -29 23t-14 40q-1 12 0 24q5 54 45 85t111 31q62 0 100 -26.5t43 -68.5zM579 313q-3 28 -43 28q-43 0 -48 -36v-9q2 -15 14 -24t27 -9q17 0 32.5 12t17.5 30q2 5 0 8zM575 138q-3 34 -56 34q-59 0 -62 -45q-1 -5 0 -9q1 -16 16 -25.5
t39 -9.5q26 0 44 12t20 32q0 7 -1 11z" />
    <glyph glyph-name="minus" unicode="&#x2212;" horiz-adv-x="500" 
d="M15 223l-9 76h410l9 -76h-410z" />
    <glyph glyph-name="E_ring" horiz-adv-x="678" 
d="M520 950q1 -12 0 -25q-6 -51 -45 -86.5t-89 -35.5q-43 0 -74 27.5t-36 68.5q-2 12 0 26q4 50 44 86t90 36q43 0 74 -27.5t36 -69.5zM451 936q-2 19 -16 31.5t-33 12.5q-22 0 -39 -16t-19 -39v-12q2 -18 15.5 -29.5t32.5 -11.5q22 0 39.5 15t20.5 38q0 7 -1 11zM627 655
h-379l-19 -193h329l-12 -122h-329l-20 -215h398l-13 -125h-546l77 780h527z" />
    <glyph glyph-name="I_ring" horiz-adv-x="342" 
d="M312 950q1 -12 0 -25q-6 -51 -45 -86.5t-89 -35.5q-43 0 -74 27.5t-36 68.5q-2 12 0 26q4 50 44 86t90 36q43 0 74 -27.5t36 -69.5zM243 936q-2 19 -16 31.5t-33 12.5q-22 0 -39 -16t-19 -39v-12q2 -18 15.5 -29.5t32.5 -11.5q22 0 39.5 15t20.5 38q0 7 -1 11zM192 0
h-152l77 780h152z" />
    <glyph glyph-name="O_ring" horiz-adv-x="806" 
d="M560 950q1 -12 0 -25q-6 -51 -45 -86.5t-89 -35.5q-43 0 -74 27.5t-36 68.5q-2 12 0 26q4 50 44 86t90 36q43 0 74 -27.5t36 -69.5zM491 936q-2 19 -16 31.5t-33 12.5q-22 0 -39 -16t-19 -39v-12q2 -18 15.5 -29.5t32.5 -11.5q22 0 39.5 15t20.5 38q0 7 -1 11zM734 509
q7 -62 0 -117q-17 -184 -123 -297.5t-266 -113.5q-132 0 -213.5 78.5t-96.5 213.5q-7 61 -1 119q18 180 124.5 293.5t267.5 113.5q131 0 212 -78.5t96 -211.5zM583 488q-10 86 -54.5 134.5t-114.5 48.5q-86 0 -151 -76.5t-78 -202.5q-4 -46 1 -95q10 -88 55.5 -138
t116.5 -50q86 0 149.5 77.5t75.5 205.5q5 59 0 96z" />
    <glyph glyph-name="e_ring" horiz-adv-x="612" 
d="M442 743q1 -12 0 -25q-5 -50 -44.5 -86t-89.5 -36q-43 0 -74 27.5t-36 68.5q-2 12 0 26q5 50 44.5 86t89.5 36q43 0 74 -27.5t36 -69.5zM374 729q-2 19 -16 31.5t-33 12.5q-22 0 -39.5 -16t-19.5 -39q0 -8 1 -12q2 -18 15 -29.5t32 -11.5q23 0 40.5 15.5t19.5 37.5v11z
M547 364q4 -42 -2 -95l-407 -51q1 -3 1 -9q6 -51 44.5 -79.5t97.5 -28.5q54 0 103 24.5t79 68.5l62 -86q-52 -61 -114 -90.5t-150 -29.5q-105 0 -171 56t-77 155q-4 29 0 79q13 127 94 208t208 81q99 0 160 -54t72 -149zM419 370q-4 40 -35.5 63t-80.5 23q-62 0 -104 -35.5
t-52 -101.5l273 36q0 3 -0.5 8t-0.5 7z" />
    <glyph glyph-name="i_ring" horiz-adv-x="290" 
d="M270 743q1 -12 0 -25q-5 -50 -44.5 -86t-89.5 -36q-43 0 -74 27.5t-36 68.5q-2 12 0 26q5 50 44.5 86t89.5 36q43 0 74 -27.5t36 -69.5zM202 729q-2 19 -16 31.5t-33 12.5q-22 0 -39.5 -16t-19.5 -39q0 -8 1 -12q2 -18 15 -29.5t32 -11.5q23 0 40.5 15.5t19.5 37.5v11z
M162 0h-143l55 555h143z" />
    <glyph glyph-name="o_ring" horiz-adv-x="649" 
d="M460 743q1 -12 0 -25q-5 -50 -44.5 -86t-89.5 -36q-43 0 -74 27.5t-36 68.5q-2 12 0 26q5 50 44.5 86t89.5 36q43 0 74 -27.5t36 -69.5zM392 729q-2 19 -16 31.5t-33 12.5q-22 0 -39.5 -16t-19.5 -39q0 -8 1 -12q2 -18 15 -29.5t32 -11.5q23 0 40.5 15.5t19.5 37.5v11z
M580 356q4 -37 0 -79q-13 -132 -97 -210.5t-215 -78.5q-109 0 -176.5 56.5t-78.5 155.5q-4 29 0 77q13 132 98 211t215 79q110 0 176.5 -56.5t77.5 -154.5zM436 333q-7 57 -39 88.5t-83 31.5q-62 0 -105.5 -47.5t-51.5 -128.5q-2 -31 1 -54q6 -57 38.5 -89.5t82.5 -32.5
q64 0 106.5 47t50.5 129q3 30 0 56z" />
    <glyph glyph-name="zero.zero" 
d="M553 712q56 -70 71 -194q7 -64 1 -137q-19 -189 -103.5 -294.5t-233.5 -105.5q-66 0 -122 35l-29 -52h-81l57 101q-65 81 -79 207q-8 66 -1 129q18 181 103.5 289.5t232.5 108.5q75 0 131 -37l20 35h80zM435 644q-27 29 -69 29q-73 0 -122 -77t-62 -205q-7 -71 -1 -131
q2 -11 6 -32l4 -21zM476 535q-2 20 -4 30l-241 -433q27 -25 60 -25q73 0 122.5 76t61.5 208q8 87 1 144z" />
  </font>
</defs>
</svg>
